<?xml version="1.0" encoding="UTF-8" standalone="no"?>
<!-- Created with Inkscape (http://www.inkscape.org/) -->

<svg
   xmlns:dc="http://purl.org/dc/elements/1.1/"
   xmlns:cc="http://creativecommons.org/ns#"
   xmlns:rdf="http://www.w3.org/1999/02/22-rdf-syntax-ns#"
   xmlns:svg="http://www.w3.org/2000/svg"
   xmlns="http://www.w3.org/2000/svg"
   xmlns:sodipodi="http://sodipodi.sourceforge.net/DTD/sodipodi-0.dtd"
   xmlns:inkscape="http://www.inkscape.org/namespaces/inkscape"
   width="181.19144mm"
   height="133.43639mm"
   viewBox="0 0 642.0169 472.80609"
   id="svg2"
   version="1.1"
   inkscape:version="0.91 r13725"
   sodipodi:docname="Sketch_front.svg"
   inkscape:export-filename="/home/fadae/projects/b-car/res/sketch_front.png"
   inkscape:export-xdpi="90"
   inkscape:export-ydpi="90">
  <defs
     id="defs4" />
  <sodipodi:namedview
     id="base"
     pagecolor="#ffffff"
     bordercolor="#666666"
     borderopacity="1.0"
     inkscape:pageopacity="0.0"
     inkscape:pageshadow="2"
     inkscape:zoom="1.4142136"
     inkscape:cx="181.17053"
     inkscape:cy="-1739.5861"
     inkscape:document-units="px"
     inkscape:current-layer="layer1"
     showgrid="false"
     showguides="true"
     inkscape:guide-bbox="true"
     fit-margin-top="0"
     fit-margin-left="0"
     fit-margin-right="0"
     fit-margin-bottom="0"
     inkscape:window-width="963"
     inkscape:window-height="373"
     inkscape:window-x="65"
     inkscape:window-y="24"
     inkscape:window-maximized="0" />
  <metadata
     id="metadata7">
    <rdf:RDF>
      <cc:Work
         rdf:about="">
        <dc:format>image/svg+xml</dc:format>
        <dc:type
           rdf:resource="http://purl.org/dc/dcmitype/StillImage" />
        <dc:title></dc:title>
      </cc:Work>
    </rdf:RDF>
  </metadata>
  <g
     inkscape:label="Ebene 1"
     inkscape:groupmode="layer"
     id="layer1"
     transform="translate(-42.159223,-42.32216)">
    <g
       id="g4757"
       transform="matrix(0.21454094,0,0,0.21454094,227.90145,256.54966)">
      <path
         sodipodi:nodetypes="cc"
         inkscape:connector-curvature="0"
         id="path4158"
         d="m -201.95923,-389.95298 c 26.14688,-443.47499 -447.41227,-354.95799 -422.7718,-35.55286"
         style="fill:none;fill-rule:evenodd;stroke:#000000;stroke-width:8.19999981;stroke-linecap:butt;stroke-linejoin:miter;stroke-miterlimit:4;stroke-dasharray:none;stroke-opacity:1" />
      <path
         sodipodi:nodetypes="cssszc"
         inkscape:connector-curvature="0"
         id="path4160"
         d="m -201.56317,-467.74835 c 0,0 75.48603,12.02667 96.46196,10.92547 22.568758,-1.18481 69.319395,-43.38231 73.69705,-56.65299 15.343247,-46.51244 18.114459,-312.24063 23.9079909,-332.51645 25.1813261,-88.1279 89.2433261,-95.08164 107.2055651,-105.53472 17.962244,-10.45309 420.622354,-1.11718 420.622354,-1.11718"
         style="fill:none;fill-rule:evenodd;stroke:#000000;stroke-width:8.19999981;stroke-linecap:butt;stroke-linejoin:miter;stroke-miterlimit:4;stroke-dasharray:none;stroke-opacity:1" />
      <path
         inkscape:connector-curvature="0"
         id="path4172"
         d="M 21.666882,-848.47041 69.18479,-649.78964"
         style="fill:none;fill-rule:evenodd;stroke:#000000;stroke-width:8.19999981;stroke-linecap:butt;stroke-linejoin:miter;stroke-miterlimit:4;stroke-dasharray:none;stroke-opacity:1" />
      <path
         sodipodi:nodetypes="czzzzzzzzc"
         inkscape:connector-curvature="0"
         id="path4176"
         d="m -797.4125,-297.16925 c 0,0 79.00513,74.45212 129.15293,87.12933 50.1478,12.67721 103.66894,-12.06314 153.81173,-15.16408 50.1428,-3.10095 83.726,-7.19326 146.82726,-3.70909 63.10126,3.48417 160.29144,10.26418 230.1784,31.39914 69.886958,21.13495 134.8697047,39.19228 185.123556,89.8291 50.253851,50.636824 64.432354,136.554843 95.516674,200.710149 31.08432,64.155311 55.83826,132.182761 90.87856,184.263641 35.0403,52.08088 74.97442,96.54886 113.67559,127.97602 38.70116,31.42716 111.06685,63.53074 111.06685,63.53074"
         style="fill:none;fill-rule:evenodd;stroke:#000000;stroke-width:8.19999981;stroke-linecap:butt;stroke-linejoin:miter;stroke-miterlimit:4;stroke-dasharray:none;stroke-opacity:1" />
      <path
         sodipodi:nodetypes="czzzczzzc"
         inkscape:connector-curvature="0"
         id="path4178"
         d="m 331.69736,441.04543 c 0,0 26.82201,32.84705 48.53984,55.26196 21.71783,22.41491 59.05185,67.07782 87.13306,85.60274 28.08121,18.52491 45.06625,22.7462 73.72151,30.2843 28.65527,7.53809 89.39963,11.28107 89.39963,11.28107 0,0 60.74436,-3.57727 89.39963,-11.11536 28.65526,-7.5381 45.6403,-11.75939 73.72151,-30.2843 28.08121,-18.52492 65.41523,-63.18783 87.13306,-85.60274 21.71783,-22.41491 48.53984,-55.26196 48.53984,-55.26196"
         style="fill:none;fill-rule:evenodd;stroke:#000000;stroke-width:8.19999981;stroke-linecap:butt;stroke-linejoin:miter;stroke-miterlimit:4;stroke-dasharray:none;stroke-opacity:1" />
      <path
         sodipodi:nodetypes="czzczzc"
         inkscape:connector-curvature="0"
         id="path4180"
         d="m 29.508089,478.35353 c 0,0 85.104581,97.88231 144.189451,135.05795 59.08488,37.17563 189.91352,98.98536 260.67044,122.27397 70.75692,23.2886 196.12342,27.25976 196.12342,27.25976 0,0 125.3665,-3.80545 196.12342,-27.09405 70.75692,-23.28861 201.58558,-85.09834 260.67048,-122.27397 59.0848,-37.17564 144.1894,-135.05795 144.1894,-135.05795"
         style="fill:none;fill-rule:evenodd;stroke:#000000;stroke-width:8.19999981;stroke-linecap:butt;stroke-linejoin:miter;stroke-miterlimit:4;stroke-dasharray:none;stroke-opacity:1" />
      <circle
         transform="matrix(0.99648269,0.08379889,-0.08379889,0.99648269,0,0)"
         r="48.048725"
         cy="-472.30173"
         cx="-520.51019"
         id="path4182"
         style="opacity:1;fill:none;fill-opacity:1;stroke:#000000;stroke-width:8.19999981;stroke-miterlimit:4;stroke-dasharray:none;stroke-opacity:1" />
      <circle
         transform="matrix(0.99648269,0.08379889,-0.08379889,0.99648269,0,0)"
         r="48.048725"
         cy="-480.57565"
         cx="-366.45828"
         id="path4182-3"
         style="opacity:1;fill:none;fill-opacity:1;stroke:#000000;stroke-width:8.19999981;stroke-miterlimit:4;stroke-dasharray:none;stroke-opacity:1" />
      <circle
         transform="matrix(0.99648269,0.08379889,-0.08379889,0.99648269,0,0)"
         r="48.048725"
         cy="-69.301727"
         cx="-393.51019"
         id="path4182-6"
         style="opacity:1;fill:none;fill-opacity:1;stroke:#000000;stroke-width:8.19999981;stroke-miterlimit:4;stroke-dasharray:none;stroke-opacity:1" />
      <circle
         transform="matrix(0.99648269,0.08379889,-0.08379889,0.99648269,0,0)"
         r="48.048725"
         cy="-421.30173"
         cx="194.48979"
         id="path4182-7"
         style="opacity:1;fill:none;fill-opacity:1;stroke:#000000;stroke-width:8.19999981;stroke-miterlimit:4;stroke-dasharray:none;stroke-opacity:1" />
      <circle
         transform="matrix(0.99648269,0.08379889,-0.08379889,0.99648269,0,0)"
         r="48.048725"
         cy="-425.30173"
         cx="390.48981"
         id="path4182-5"
         style="opacity:1;fill:none;fill-opacity:1;stroke:#000000;stroke-width:8.19999981;stroke-miterlimit:4;stroke-dasharray:none;stroke-opacity:1" />
      <circle
         transform="matrix(0.99648269,0.08379889,-0.08379889,0.99648269,0,0)"
         r="48.048725"
         cy="-427.52902"
         cx="597.19244"
         id="path4182-35"
         style="opacity:1;fill:none;fill-opacity:1;stroke:#000000;stroke-width:8.19999981;stroke-miterlimit:4;stroke-dasharray:none;stroke-opacity:1" />
      <ellipse
         transform="matrix(0.99648269,0.08379889,-0.08379889,0.99648269,0,0)"
         ry="25.378477"
         rx="49.378475"
         cy="-856.25342"
         cx="141.61908"
         id="path4182-62"
         style="opacity:1;fill:none;fill-opacity:1;stroke:#000000;stroke-width:8.19999981;stroke-miterlimit:4;stroke-dasharray:none;stroke-opacity:1" />
      <ellipse
         transform="matrix(0.99648269,0.08379889,-0.08379889,0.99648269,0,0)"
         ry="25.378477"
         rx="49.378475"
         cy="-806.63507"
         cx="238.44113"
         id="path4182-62-9"
         style="opacity:1;fill:none;fill-opacity:1;stroke:#000000;stroke-width:8.19999981;stroke-miterlimit:4;stroke-dasharray:none;stroke-opacity:1" />
      <ellipse
         transform="matrix(0.99648269,0.08379889,-0.08379889,0.99648269,0,0)"
         ry="25.378477"
         rx="49.378475"
         cy="-777.19794"
         cx="393.03763"
         id="path4182-62-1"
         style="opacity:1;fill:none;fill-opacity:1;stroke:#000000;stroke-width:8.19999981;stroke-miterlimit:4;stroke-dasharray:none;stroke-opacity:1" />
      <path
         sodipodi:nodetypes="cccc"
         inkscape:connector-curvature="0"
         id="path4265"
         d="m -145.87845,144.47141 1.57966,598.74891 219.226195,0.43575 -1.422824,-130.14734"
         style="fill:none;fill-rule:evenodd;stroke:#000000;stroke-width:8.19999981;stroke-linecap:butt;stroke-linejoin:miter;stroke-miterlimit:4;stroke-dasharray:none;stroke-opacity:1" />
      <path
         sodipodi:nodetypes="cccc"
         inkscape:connector-curvature="0"
         id="path4267"
         d="m -515.3682,13.762879 0.90492,1187.219721 219.0264,-0.862 -2.2961,-1170.124389"
         style="fill:none;fill-rule:evenodd;stroke:#000000;stroke-width:8.19999981;stroke-linecap:butt;stroke-linejoin:miter;stroke-miterlimit:4;stroke-dasharray:none;stroke-opacity:1" />
      <path
         sodipodi:nodetypes="czzsszzzzczzzzsszzc"
         inkscape:connector-curvature="0"
         id="path4269"
         d="m 182.34352,820.86568 c 0,0 18.54055,3.8101 -26.24374,1.80716 -44.7843,-2.00293 -187.530627,-20.83428 -239.640435,-38.21602 -52.109805,-17.38173 -66.420105,-39.22963 -76.869455,-40.58432 -8.45539,-1.09619 -14.45355,4.80571 -14.45355,4.80571 -5.94426,6.98852 -6.22488,45.40227 -1.71239,68.09602 4.51249,22.69375 16.05282,43.61799 33.46235,61.5205 17.40952,17.9025 15.59661,20.24709 66.615878,37.21322 51.019267,16.96614 132.988791,23.67743 244.129152,32.57232 111.14037,8.8949 462.86007,14.5304 462.86007,14.5304 0,0 351.7197,-5.46979 462.8601,-14.36469 111.1403,-8.89489 193.1099,-15.60618 244.1291,-32.57232 51.0193,-16.96613 49.2064,-19.31072 66.6159,-37.21322 17.4095,-17.90251 28.9499,-38.82675 33.4623,-61.5205 4.5125,-22.69375 4.2319,-61.1075 -1.7123,-68.09602 0,0 -5.9982,-5.9019 -14.4536,-4.80571 -10.4493,1.35469 -24.7596,23.20259 -76.8694,40.58432 -52.1099,17.38174 -194.8562,36.21309 -239.6405,38.21602 -44.7843,2.00294 -26.2437,-1.80716 -26.2437,-1.80716"
         style="fill:none;fill-rule:evenodd;stroke:#000000;stroke-width:8.19999981;stroke-linecap:butt;stroke-linejoin:miter;stroke-miterlimit:4;stroke-dasharray:none;stroke-opacity:1" />
      <path
         sodipodi:nodetypes="ccc"
         inkscape:connector-curvature="0"
         id="path4271"
         d="m -293.00528,1198.9966 33.62336,-45.4255 -1.57237,-1107.028294"
         style="fill:none;fill-rule:evenodd;stroke:#000000;stroke-width:8.19999981;stroke-linecap:butt;stroke-linejoin:miter;stroke-miterlimit:4;stroke-dasharray:none;stroke-opacity:1" />
      <path
         sodipodi:nodetypes="cccc"
         inkscape:connector-curvature="0"
         id="path4275"
         d="M -260.15859,923.9991 -204,840.3622 l -3,-469 -52,-87"
         style="fill:none;fill-rule:evenodd;stroke:#000000;stroke-width:8.19999981;stroke-linecap:butt;stroke-linejoin:miter;stroke-miterlimit:4;stroke-dasharray:none;stroke-opacity:1" />
      <path
         sodipodi:nodetypes="ccc"
         inkscape:connector-curvature="0"
         id="path4277"
         d="m -516.0335,1201.5292 -37.08851,-31.5031 2.14258,-1150.801711"
         style="fill:none;fill-rule:evenodd;stroke:#000000;stroke-width:8.19999981;stroke-linecap:butt;stroke-linejoin:miter;stroke-miterlimit:4;stroke-dasharray:none;stroke-opacity:1" />
      <ellipse
         ry="40.204693"
         rx="115.20472"
         cy="534.36218"
         cx="630.9184"
         id="path4484"
         style="opacity:1;fill:none;fill-opacity:1;stroke:#000000;stroke-width:8.19999981;stroke-miterlimit:4;stroke-dasharray:none;stroke-opacity:1" />
      <ellipse
         ry="27.223612"
         rx="51.972347"
         cy="-718.58673"
         cx="630.9184"
         id="path4486"
         style="opacity:1;fill:none;fill-opacity:1;stroke:#000000;stroke-width:8.19999981;stroke-miterlimit:4;stroke-dasharray:none;stroke-opacity:1" />
      <rect
         ry="0"
         y="520.03381"
         x="-206.32837"
         height="180.65675"
         width="61.156761"
         id="rect4492"
         style="opacity:1;fill:none;fill-opacity:1;stroke:#000000;stroke-width:8.19999981;stroke-miterlimit:4;stroke-dasharray:none;stroke-opacity:1" />
      <path
         sodipodi:nodetypes="cc"
         inkscape:connector-curvature="0"
         id="path4158-7"
         d="m 1462.942,-389.78727 c -26.1468,-443.47499 447.4123,-354.95799 422.7718,-35.55286"
         style="fill:none;fill-rule:evenodd;stroke:#000000;stroke-width:8.19999981;stroke-linecap:butt;stroke-linejoin:miter;stroke-miterlimit:4;stroke-dasharray:none;stroke-opacity:1" />
      <path
         sodipodi:nodetypes="cssszc"
         inkscape:connector-curvature="0"
         id="path4160-8"
         d="m 1462.546,-467.58264 c 0,0 -75.4861,12.02667 -96.462,10.92547 -22.5687,-1.18481 -69.3194,-43.38231 -73.697,-56.65299 -15.3433,-46.51244 -18.1145,-312.24063 -23.908,-332.51645 -25.1814,-88.1279 -89.2434,-95.08164 -107.2056,-105.53472 -17.9622,-10.45309 -420.62235,-1.11718 -420.62235,-1.11718"
         style="fill:none;fill-rule:evenodd;stroke:#000000;stroke-width:8.19999981;stroke-linecap:butt;stroke-linejoin:miter;stroke-miterlimit:4;stroke-dasharray:none;stroke-opacity:1" />
      <path
         sodipodi:nodetypes="czzzczzzc"
         inkscape:connector-curvature="0"
         id="path4162-4"
         d="m 754.85195,-926.30692 c 0,0 -12.15401,-7.2957 -15.44679,-14.92049 -3.29277,-7.6248 3.58588,-19.4569 -0.35699,-28.35409 -3.94288,-8.89718 -5.1116,-13.63662 -21.99429,-20.45224 -16.88269,-6.81562 -86.56248,-3.53295 -86.56248,-3.53295 0,0 -69.67979,-3.44838 -86.56248,3.36724 -16.88269,6.81562 -18.05141,11.55506 -21.99429,20.45224 -3.94287,8.89719 2.93578,20.72929 -0.35699,28.35409 -3.29278,7.62479 -15.44679,14.92049 -15.44679,14.92049"
         style="fill:none;fill-rule:evenodd;stroke:#000000;stroke-width:8.19999981;stroke-linecap:butt;stroke-linejoin:miter;stroke-miterlimit:4;stroke-dasharray:none;stroke-opacity:1" />
      <path
         sodipodi:nodetypes="czzzzzzzzczzzzzzzzc"
         inkscape:connector-curvature="0"
         id="path4166-5"
         d="m 1887.4994,-480.80501 c 0,0 197.6056,128.36618 224.1601,210.82356 26.5545,82.45738 1.5194,179.831919 -41.2652,232.570482 -42.7845,52.738562 -86.4875,52.804832 -158.8366,64.043221 -72.3491,11.23839 -178.4391,-40.119388 -267.2844,-20.0989676 -88.8452,20.0204196 -153.3244,41.5540526 -241.8305,137.9279546 -88.506,96.3739 -167.6798,313.4506 -212.7294,459.87051 -45.0496,146.41991 -98.5946,204.13414 -155.73,246.54674 -57.13544,42.4126 -60.10784,31.68734 -130.43726,36.05732 -70.32942,4.36998 -273.05474,9.07668 -273.05474,9.07668 0,0 -202.72532,-4.87241 -273.05474,-9.24239 -70.32942,-4.36998 -73.30182,6.35528 -130.43722,-36.05732 C 169.86403,808.30018 116.319,750.58595 71.269419,604.16604 26.21984,457.74613 -52.953962,240.66943 -141.46001,144.29553 -229.96606,47.921625 -294.44528,26.387992 -383.29053,6.3675722 -472.13579,-13.652848 -578.22575,37.70493 -650.57489,26.46654 -722.92403,15.228151 -766.62695,15.161881 -809.41154,-37.576681 c -42.78458,-52.738563 -67.81963,-150.113099 -41.26514,-232.570479 26.55449,-82.45738 224.16004,-210.82356 224.16004,-210.82356"
         style="fill:none;fill-rule:evenodd;stroke:#000000;stroke-width:8.19999981;stroke-linecap:butt;stroke-linejoin:miter;stroke-miterlimit:4;stroke-dasharray:none;stroke-opacity:1" />
      <path
         sodipodi:nodetypes="czscszc"
         inkscape:connector-curvature="0"
         id="path4168-0"
         d="m 1211.3894,-292.02871 c 0,0 -10.343,-297.33025 -22.0507,-315.24015 -11.7077,-17.90991 -26.3127,-22.01743 -36.0592,-23.05939 -36.318,-3.88262 -522.7881,35.34462 -522.7881,35.34462 0,0 -486.47011,-39.39295 -522.78808,-35.51033 -9.746545,1.04196 -24.351492,5.14948 -36.059188,23.05939 -11.707695,17.9099 -22.050683,315.24015 -22.050683,315.24015"
         style="fill:none;fill-rule:evenodd;stroke:#000000;stroke-width:8.19999981;stroke-linecap:butt;stroke-linejoin:miter;stroke-miterlimit:4;stroke-dasharray:none;stroke-opacity:1" />
      <path
         sodipodi:nodetypes="czzzzczzzzc"
         inkscape:connector-curvature="0"
         id="path4170-3"
         d="m 1306.8433,-283.97851 c 0,0 -65.1027,2.47531 -131.9838,77.3321 -66.8812,74.8568 -122.4307,308.03663 -182.22354,410.71474 -59.79282,102.67812 -107.61131,169.41242 -156.79581,211.88458 -49.1845,42.47217 -78.49272,50.72803 -111.40205,59.54481 -32.90933,8.81678 -93.59315,7.52818 -93.59315,7.52818 0,0 -61.39092,1.12289 -94.30025,-7.69389 C 503.63537,466.51523 474.32715,458.25937 425.14265,415.7872 375.95815,373.31504 328.13966,306.58074 268.34684,203.90262 208.55402,101.22451 153.00451,-131.95532 86.123343,-206.81212 c -66.881166,-74.85679 -131.983884,-77.3321 -131.983884,-77.3321"
         style="fill:none;fill-rule:evenodd;stroke:#000000;stroke-width:8.19999981;stroke-linecap:butt;stroke-linejoin:miter;stroke-miterlimit:4;stroke-dasharray:none;stroke-opacity:1" />
      <path
         inkscape:connector-curvature="0"
         id="path4172-6"
         d="m 1239.3159,-848.3047 -47.5179,198.68077"
         style="fill:none;fill-rule:evenodd;stroke:#000000;stroke-width:8.19999981;stroke-linecap:butt;stroke-linejoin:miter;stroke-miterlimit:4;stroke-dasharray:none;stroke-opacity:1" />
      <path
         sodipodi:nodetypes="czzczzc"
         inkscape:connector-curvature="0"
         id="path4174-1"
         d="m 933.30592,596.42014 c 0,0 5.13009,18.32542 -24.54956,42.20568 -29.67964,23.88025 -121.83621,87.2007 -158.37702,97.61516 -36.5408,10.41446 -119.88794,8.7872 -119.88794,8.7872 0,0 -83.34714,1.46155 -119.88794,-8.95291 -36.54081,-10.41446 -128.69738,-73.73491 -158.37702,-97.61516 -29.67965,-23.88026 -24.54956,-42.20568 -24.54956,-42.20568"
         style="fill:none;fill-rule:evenodd;stroke:#000000;stroke-width:8.19999981;stroke-linecap:butt;stroke-linejoin:miter;stroke-miterlimit:4;stroke-dasharray:none;stroke-opacity:1" />
      <path
         sodipodi:nodetypes="czzzzzzzzc"
         inkscape:connector-curvature="0"
         id="path4176-0"
         d="m 2058.3953,-297.00354 c 0,0 -79.0051,74.45212 -129.1529,87.12933 -50.1478,12.67721 -103.669,-12.06314 -153.8118,-15.16408 -50.1428,-3.10095 -83.726,-7.19326 -146.8272,-3.70909 -63.1013,3.48417 -160.2915,10.26418 -230.1784,31.39914 -69.887,21.13495 -134.8697,39.19228 -185.1236,89.8291 -50.2538,50.636827 -64.4323,136.554846 -95.5166,200.710152 -31.0844,64.155308 -55.8383,132.182758 -90.8786,184.263638 -35.04031,52.08088 -74.97443,96.54886 -113.6756,127.97602 -38.70116,31.42716 -111.06685,63.53074 -111.06685,63.53074"
         style="fill:none;fill-rule:evenodd;stroke:#000000;stroke-width:8.19999981;stroke-linecap:butt;stroke-linejoin:miter;stroke-miterlimit:4;stroke-dasharray:none;stroke-opacity:1" />
      <circle
         transform="matrix(-0.99648269,0.08379889,0.08379889,0.99648269,0,0)"
         r="48.048725"
         cy="-366.46765"
         cx="-1777.0438"
         id="path4182-2"
         style="opacity:1;fill:none;fill-opacity:1;stroke:#000000;stroke-width:8.19999981;stroke-miterlimit:4;stroke-dasharray:none;stroke-opacity:1" />
      <circle
         transform="matrix(-0.99648269,0.08379889,0.08379889,0.99648269,0,0)"
         r="48.048725"
         cy="-374.74158"
         cx="-1622.9919"
         id="path4182-3-0"
         style="opacity:1;fill:none;fill-opacity:1;stroke:#000000;stroke-width:8.19999981;stroke-miterlimit:4;stroke-dasharray:none;stroke-opacity:1" />
      <circle
         transform="matrix(-0.99648269,0.08379889,0.08379889,0.99648269,0,0)"
         r="48.048725"
         cy="36.53236"
         cx="-1650.0438"
         id="path4182-6-6"
         style="opacity:1;fill:none;fill-opacity:1;stroke:#000000;stroke-width:8.19999981;stroke-miterlimit:4;stroke-dasharray:none;stroke-opacity:1" />
      <circle
         transform="matrix(-0.99648269,0.08379889,0.08379889,0.99648269,0,0)"
         r="48.048725"
         cy="-315.46765"
         cx="-1062.0438"
         id="path4182-7-1"
         style="opacity:1;fill:none;fill-opacity:1;stroke:#000000;stroke-width:8.19999981;stroke-miterlimit:4;stroke-dasharray:none;stroke-opacity:1" />
      <circle
         transform="matrix(-0.99648269,0.08379889,0.08379889,0.99648269,0,0)"
         r="48.048725"
         cy="-319.46765"
         cx="-866.04382"
         id="path4182-5-5"
         style="opacity:1;fill:none;fill-opacity:1;stroke:#000000;stroke-width:8.19999981;stroke-miterlimit:4;stroke-dasharray:none;stroke-opacity:1" />
      <ellipse
         transform="matrix(-0.99648269,0.08379889,0.08379889,0.99648269,0,0)"
         ry="25.378477"
         rx="49.378475"
         cy="-750.41931"
         cx="-1114.9146"
         id="path4182-62-4"
         style="opacity:1;fill:none;fill-opacity:1;stroke:#000000;stroke-width:8.19999981;stroke-miterlimit:4;stroke-dasharray:none;stroke-opacity:1" />
      <ellipse
         transform="matrix(-0.99648269,0.08379889,0.08379889,0.99648269,0,0)"
         ry="25.378477"
         rx="49.378475"
         cy="-700.80096"
         cx="-1018.0925"
         id="path4182-62-9-7"
         style="opacity:1;fill:none;fill-opacity:1;stroke:#000000;stroke-width:8.19999981;stroke-miterlimit:4;stroke-dasharray:none;stroke-opacity:1" />
      <ellipse
         transform="matrix(-0.99648269,0.08379889,0.08379889,0.99648269,0,0)"
         ry="25.378477"
         rx="49.378475"
         cy="-671.36383"
         cx="-863.49603"
         id="path4182-62-1-6"
         style="opacity:1;fill:none;fill-opacity:1;stroke:#000000;stroke-width:8.19999981;stroke-miterlimit:4;stroke-dasharray:none;stroke-opacity:1" />
      <path
         sodipodi:nodetypes="cccc"
         inkscape:connector-curvature="0"
         id="path4265-5"
         d="m 1406.8613,144.63712 -1.5797,598.74891 -219.2262,0.43575 1.4228,-130.14734"
         style="fill:none;fill-rule:evenodd;stroke:#000000;stroke-width:8.19999981;stroke-linecap:butt;stroke-linejoin:miter;stroke-miterlimit:4;stroke-dasharray:none;stroke-opacity:1" />
      <path
         sodipodi:nodetypes="cccc"
         inkscape:connector-curvature="0"
         id="path4267-6"
         d="m 1776.351,13.928592 -0.9049,1187.219708 -219.0264,-0.862 2.2961,-1170.124376"
         style="fill:none;fill-rule:evenodd;stroke:#000000;stroke-width:8.19999981;stroke-linecap:butt;stroke-linejoin:miter;stroke-miterlimit:4;stroke-dasharray:none;stroke-opacity:1" />
      <path
         sodipodi:nodetypes="ccc"
         inkscape:connector-curvature="0"
         id="path4271-3"
         d="m 1553.9881,1199.1623 -33.6234,-45.4255 1.5724,-1107.028281"
         style="fill:none;fill-rule:evenodd;stroke:#000000;stroke-width:8.19999981;stroke-linecap:butt;stroke-linejoin:miter;stroke-miterlimit:4;stroke-dasharray:none;stroke-opacity:1" />
      <path
         sodipodi:nodetypes="cccc"
         inkscape:connector-curvature="0"
         id="path4275-7"
         d="m 1521.1414,924.16481 -56.1586,-83.6369 3,-469 52,-87"
         style="fill:none;fill-rule:evenodd;stroke:#000000;stroke-width:8.19999981;stroke-linecap:butt;stroke-linejoin:miter;stroke-miterlimit:4;stroke-dasharray:none;stroke-opacity:1" />
      <path
         sodipodi:nodetypes="ccc"
         inkscape:connector-curvature="0"
         id="path4277-4"
         d="m 1777.0163,1201.6949 37.0885,-31.5031 -2.1426,-1150.801698"
         style="fill:none;fill-rule:evenodd;stroke:#000000;stroke-width:8.19999981;stroke-linecap:butt;stroke-linejoin:miter;stroke-miterlimit:4;stroke-dasharray:none;stroke-opacity:1" />
      <rect
         transform="scale(-1,1)"
         ry="0"
         y="520.19952"
         x="-1467.3112"
         height="180.65675"
         width="61.156761"
         id="rect4492-5"
         style="opacity:1;fill:none;fill-opacity:1;stroke:#000000;stroke-width:8.19999981;stroke-miterlimit:4;stroke-dasharray:none;stroke-opacity:1" />
    </g>
    <text
       xml:space="preserve"
       style="font-style:normal;font-weight:normal;font-size:25px;line-height:125%;font-family:Sans;letter-spacing:0px;word-spacing:0px;fill:#000000;fill-opacity:1;stroke:none;stroke-width:1px;stroke-linecap:butt;stroke-linejoin:miter;stroke-opacity:1"
       x="158.12474"
       y="249.25609"
       id="text4825"
       sodipodi:linespacing="125%"><tspan
         sodipodi:role="line"
         id="tspan4827"
         x="158.12474"
         y="249.25609"
         style="font-style:normal;font-variant:normal;font-weight:normal;font-stretch:normal;font-size:17.5px;font-family:'Droid Sans Mono';-inkscape-font-specification:'Droid Sans Mono'">0</tspan></text>
    <text
       xml:space="preserve"
       style="font-style:normal;font-weight:normal;font-size:25px;line-height:125%;font-family:Sans;letter-spacing:0px;word-spacing:0px;fill:#000000;fill-opacity:1;stroke:none;stroke-width:1px;stroke-linecap:butt;stroke-linejoin:miter;stroke-opacity:1"
       x="104.08778"
       y="167.83401"
       id="text4825-1"
       sodipodi:linespacing="125%"><tspan
         sodipodi:role="line"
         id="tspan4827-2"
         x="104.08778"
         y="167.83401"
         style="font-style:normal;font-variant:normal;font-weight:normal;font-stretch:normal;font-size:17.5px;font-family:'Droid Sans Mono';-inkscape-font-specification:'Droid Sans Mono'">1</tspan></text>
    <text
       xml:space="preserve"
       style="font-style:normal;font-weight:normal;font-size:25px;line-height:125%;font-family:Sans;letter-spacing:0px;word-spacing:0px;fill:#000000;fill-opacity:1;stroke:none;stroke-width:1px;stroke-linecap:butt;stroke-linejoin:miter;stroke-opacity:1"
       x="163.48476"
       y="172.07666"
       id="text4825-6"
       sodipodi:linespacing="125%"><tspan
         sodipodi:role="line"
         id="tspan4827-26"
         x="163.48476"
         y="172.07666"
         style="font-style:normal;font-variant:normal;font-weight:normal;font-stretch:normal;font-size:17.5px;font-family:'Droid Sans Mono';-inkscape-font-specification:'Droid Sans Mono'">2</tspan></text>
    <text
       xml:space="preserve"
       style="font-style:normal;font-weight:normal;font-size:25px;line-height:125%;font-family:Sans;letter-spacing:0px;word-spacing:0px;fill:#000000;fill-opacity:1;stroke:none;stroke-width:1px;stroke-linecap:butt;stroke-linejoin:miter;stroke-opacity:1"
       x="264.60101"
       y="196.82539"
       id="text4825-65"
       sodipodi:linespacing="125%"><tspan
         sodipodi:role="line"
         id="tspan4827-0"
         x="264.60101"
         y="196.82539"
         style="font-style:normal;font-variant:normal;font-weight:normal;font-stretch:normal;font-size:17.5px;font-family:'Droid Sans Mono';-inkscape-font-specification:'Droid Sans Mono'">3</tspan></text>
    <text
       xml:space="preserve"
       style="font-style:normal;font-weight:normal;font-size:25px;line-height:125%;font-family:Sans;letter-spacing:0px;word-spacing:0px;fill:#000000;fill-opacity:1;stroke:none;stroke-width:1px;stroke-linecap:butt;stroke-linejoin:miter;stroke-opacity:1"
       x="305.61319"
       y="201.06804"
       id="text4825-5"
       sodipodi:linespacing="125%"><tspan
         sodipodi:role="line"
         id="tspan4827-4"
         x="305.61319"
         y="201.06804"
         style="font-style:normal;font-variant:normal;font-weight:normal;font-stretch:normal;font-size:17.5px;font-family:'Droid Sans Mono';-inkscape-font-specification:'Droid Sans Mono'">4</tspan></text>
    <text
       xml:space="preserve"
       style="font-style:normal;font-weight:normal;font-size:25px;line-height:125%;font-family:Sans;letter-spacing:0px;word-spacing:0px;fill:#000000;fill-opacity:1;stroke:none;stroke-width:1px;stroke-linecap:butt;stroke-linejoin:miter;stroke-opacity:1"
       x="349.45383"
       y="206.01779"
       id="text4825-3"
       sodipodi:linespacing="125%"><tspan
         sodipodi:role="line"
         id="tspan4827-1"
         x="349.45383"
         y="206.01779"
         style="font-style:normal;font-variant:normal;font-weight:normal;font-stretch:normal;font-size:17.5px;font-family:'Droid Sans Mono';-inkscape-font-specification:'Droid Sans Mono'">5</tspan></text>
    <text
       xml:space="preserve"
       style="font-style:normal;font-weight:normal;font-size:25px;line-height:125%;font-family:Sans;letter-spacing:0px;word-spacing:0px;fill:#000000;fill-opacity:1;stroke:none;stroke-width:1px;stroke-linecap:butt;stroke-linejoin:miter;stroke-opacity:1"
       x="392.58734"
       y="203.89647"
       id="text4825-9"
       sodipodi:linespacing="125%"><tspan
         sodipodi:role="line"
         id="tspan4827-8"
         x="392.58734"
         y="203.89647"
         style="font-style:normal;font-variant:normal;font-weight:normal;font-stretch:normal;font-size:17.5px;font-family:'Droid Sans Mono';-inkscape-font-specification:'Droid Sans Mono'">13</tspan></text>
    <text
       xml:space="preserve"
       style="font-style:normal;font-weight:normal;font-size:25px;line-height:125%;font-family:Sans;letter-spacing:0px;word-spacing:0px;fill:#000000;fill-opacity:1;stroke:none;stroke-width:1px;stroke-linecap:butt;stroke-linejoin:miter;stroke-opacity:1"
       x="439.9635"
       y="198.23961"
       id="text4825-7"
       sodipodi:linespacing="125%"><tspan
         sodipodi:role="line"
         id="tspan4827-7"
         x="439.9635"
         y="198.23961"
         style="font-style:normal;font-variant:normal;font-weight:normal;font-stretch:normal;font-size:17.5px;font-family:'Droid Sans Mono';-inkscape-font-specification:'Droid Sans Mono'">14</tspan></text>
    <text
       xml:space="preserve"
       style="font-style:normal;font-weight:normal;font-size:25px;line-height:125%;font-family:Sans;letter-spacing:0px;word-spacing:0px;fill:#000000;fill-opacity:1;stroke:none;stroke-width:1px;stroke-linecap:butt;stroke-linejoin:miter;stroke-opacity:1"
       x="258.23706"
       y="97.830437"
       id="text4825-2"
       sodipodi:linespacing="125%"><tspan
         sodipodi:role="line"
         id="tspan4827-5"
         x="258.23706"
         y="97.830437"
         style="font-style:normal;font-variant:normal;font-weight:normal;font-stretch:normal;font-size:17.5px;font-family:'Droid Sans Mono';-inkscape-font-specification:'Droid Sans Mono'">6</tspan></text>
    <text
       xml:space="preserve"
       style="font-style:normal;font-weight:normal;font-size:25px;line-height:125%;font-family:Sans;letter-spacing:0px;word-spacing:0px;fill:#000000;fill-opacity:1;stroke:none;stroke-width:1px;stroke-linecap:butt;stroke-linejoin:miter;stroke-opacity:1"
       x="282.27869"
       y="113.3868"
       id="text4825-4"
       sodipodi:linespacing="125%"><tspan
         sodipodi:role="line"
         id="tspan4827-3"
         x="282.27869"
         y="113.3868"
         style="font-style:normal;font-variant:normal;font-weight:normal;font-stretch:normal;font-size:17.5px;font-family:'Droid Sans Mono';-inkscape-font-specification:'Droid Sans Mono'">7</tspan></text>
    <text
       xml:space="preserve"
       style="font-style:normal;font-weight:normal;font-size:25px;line-height:125%;font-family:Sans;letter-spacing:0px;word-spacing:0px;fill:#000000;fill-opacity:1;stroke:none;stroke-width:1px;stroke-linecap:butt;stroke-linejoin:miter;stroke-opacity:1"
       x="316.21982"
       y="121.87208"
       id="text4825-57"
       sodipodi:linespacing="125%"><tspan
         sodipodi:role="line"
         id="tspan4827-56"
         x="316.21982"
         y="121.87208"
         style="font-style:normal;font-variant:normal;font-weight:normal;font-stretch:normal;font-size:17.5px;font-family:'Droid Sans Mono';-inkscape-font-specification:'Droid Sans Mono'">8</tspan></text>
    <text
       xml:space="preserve"
       style="font-style:normal;font-weight:normal;font-size:25px;line-height:125%;font-family:Sans;letter-spacing:0px;word-spacing:0px;fill:#000000;fill-opacity:1;stroke:none;stroke-width:1px;stroke-linecap:butt;stroke-linejoin:miter;stroke-opacity:1"
       x="354.40359"
       y="123.9934"
       id="text4825-59"
       sodipodi:linespacing="125%"><tspan
         sodipodi:role="line"
         id="tspan4827-58"
         x="354.40359"
         y="123.9934"
         style="font-style:normal;font-variant:normal;font-weight:normal;font-stretch:normal;font-size:17.5px;font-family:'Droid Sans Mono';-inkscape-font-specification:'Droid Sans Mono'">9</tspan></text>
    <text
       xml:space="preserve"
       style="font-style:normal;font-weight:normal;font-size:25px;line-height:125%;font-family:Sans;letter-spacing:0px;word-spacing:0px;fill:#000000;fill-opacity:1;stroke:none;stroke-width:1px;stroke-linecap:butt;stroke-linejoin:miter;stroke-opacity:1"
       x="396.12289"
       y="120.45786"
       id="text4825-33"
       sodipodi:linespacing="125%"><tspan
         sodipodi:role="line"
         id="tspan4827-19"
         x="396.12289"
         y="120.45786"
         style="font-style:normal;font-variant:normal;font-weight:normal;font-stretch:normal;font-size:17.5px;font-family:'Droid Sans Mono';-inkscape-font-specification:'Droid Sans Mono'">10</tspan></text>
    <text
       xml:space="preserve"
       style="font-style:normal;font-weight:normal;font-size:25px;line-height:125%;font-family:Sans;letter-spacing:0px;word-spacing:0px;fill:#000000;fill-opacity:1;stroke:none;stroke-width:1px;stroke-linecap:butt;stroke-linejoin:miter;stroke-opacity:1"
       x="434.30664"
       y="111.26547"
       id="text4825-96"
       sodipodi:linespacing="125%"><tspan
         sodipodi:role="line"
         id="tspan4827-17"
         x="434.30664"
         y="111.26547"
         style="font-style:normal;font-variant:normal;font-weight:normal;font-stretch:normal;font-size:17.5px;font-family:'Droid Sans Mono';-inkscape-font-specification:'Droid Sans Mono'">11</tspan></text>
    <text
       xml:space="preserve"
       style="font-style:normal;font-weight:normal;font-size:25px;line-height:125%;font-family:Sans;letter-spacing:0px;word-spacing:0px;fill:#000000;fill-opacity:1;stroke:none;stroke-width:1px;stroke-linecap:butt;stroke-linejoin:miter;stroke-opacity:1"
       x="457.64117"
       y="100.65887"
       id="text4825-14"
       sodipodi:linespacing="125%"><tspan
         sodipodi:role="line"
         id="tspan4827-02"
         x="457.64117"
         y="100.65887"
         style="font-style:normal;font-variant:normal;font-weight:normal;font-stretch:normal;font-size:17.5px;font-family:'Droid Sans Mono';-inkscape-font-specification:'Droid Sans Mono'">12</tspan></text>
    <text
       xml:space="preserve"
       style="font-style:normal;font-weight:normal;font-size:25px;line-height:125%;font-family:Sans;letter-spacing:0px;word-spacing:0px;fill:#000000;fill-opacity:1;stroke:none;stroke-width:1px;stroke-linecap:butt;stroke-linejoin:miter;stroke-opacity:1"
       x="554.51483"
       y="176.31929"
       id="text4825-58"
       sodipodi:linespacing="125%"><tspan
         sodipodi:role="line"
         id="tspan4827-01"
         x="554.51483"
         y="176.31929"
         style="font-style:normal;font-variant:normal;font-weight:normal;font-stretch:normal;font-size:17.5px;font-family:'Droid Sans Mono';-inkscape-font-specification:'Droid Sans Mono'">15</tspan></text>
    <text
       xml:space="preserve"
       style="font-style:normal;font-weight:normal;font-size:25px;line-height:125%;font-family:Sans;letter-spacing:0px;word-spacing:0px;fill:#000000;fill-opacity:1;stroke:none;stroke-width:1px;stroke-linecap:butt;stroke-linejoin:miter;stroke-opacity:1"
       x="603.30518"
       y="176.31929"
       id="text4825-69"
       sodipodi:linespacing="125%"><tspan
         sodipodi:role="line"
         id="tspan4827-70"
         x="603.30518"
         y="176.31929"
         style="font-style:normal;font-variant:normal;font-weight:normal;font-stretch:normal;font-size:17.5px;font-family:'Droid Sans Mono';-inkscape-font-specification:'Droid Sans Mono'">16</tspan></text>
    <text
       xml:space="preserve"
       style="font-style:normal;font-weight:normal;font-size:25px;line-height:125%;font-family:Sans;letter-spacing:0px;word-spacing:0px;fill:#000000;fill-opacity:1;stroke:none;stroke-width:1px;stroke-linecap:butt;stroke-linejoin:miter;stroke-opacity:1"
       x="597.64838"
       y="245.61577"
       id="text4825-51"
       sodipodi:linespacing="125%"><tspan
         sodipodi:role="line"
         id="tspan4827-32"
         x="597.64838"
         y="245.61577"
         style="font-style:normal;font-variant:normal;font-weight:normal;font-stretch:normal;font-size:17.5px;font-family:'Droid Sans Mono';-inkscape-font-specification:'Droid Sans Mono'">17</tspan></text>
  </g>
</svg>
