<?xml version="1.0" encoding="UTF-8" standalone="no"?>
<!-- Created with Inkscape (http://www.inkscape.org/) -->

<svg
   xmlns:dc="http://purl.org/dc/elements/1.1/"
   xmlns:cc="http://creativecommons.org/ns#"
   xmlns:rdf="http://www.w3.org/1999/02/22-rdf-syntax-ns#"
   xmlns:svg="http://www.w3.org/2000/svg"
   xmlns="http://www.w3.org/2000/svg"
   xmlns:sodipodi="http://sodipodi.sourceforge.net/DTD/sodipodi-0.dtd"
   xmlns:inkscape="http://www.inkscape.org/namespaces/inkscape"
   width="181.18666mm"
   height="133.93291mm"
   viewBox="0 0 641.99998 474.56542"
   id="svg2"
   version="1.1"
   inkscape:version="0.91 r13725"
   sodipodi:docname="sketch_back.svg">
  <defs
     id="defs4" />
  <sodipodi:namedview
     id="base"
     pagecolor="#ffffff"
     bordercolor="#666666"
     borderopacity="1.0"
     inkscape:pageopacity="0.0"
     inkscape:pageshadow="2"
     inkscape:zoom="1"
     inkscape:cx="459.49235"
     inkscape:cy="246.96963"
     inkscape:document-units="px"
     inkscape:current-layer="layer1"
     showgrid="false"
     showguides="true"
     inkscape:guide-bbox="true"
     inkscape:window-width="1248"
     inkscape:window-height="1388"
     inkscape:window-x="65"
     inkscape:window-y="24"
     inkscape:window-maximized="0"
     fit-margin-top="0"
     fit-margin-left="0"
     fit-margin-right="0"
     fit-margin-bottom="0">
    <sodipodi:guide
       position="-177.64535,-1271.1409"
       orientation="0,1"
       id="guide4225" />
  </sodipodi:namedview>
  <metadata
     id="metadata7">
    <rdf:RDF>
      <cc:Work
         rdf:about="">
        <dc:format>image/svg+xml</dc:format>
        <dc:type
           rdf:resource="http://purl.org/dc/dcmitype/StillImage" />
        <dc:title></dc:title>
      </cc:Work>
    </rdf:RDF>
  </metadata>
  <g
     inkscape:label="Ebene 1"
     inkscape:groupmode="layer"
     id="layer1"
     transform="translate(-45.820445,-148.11293)">
    <path
       style="fill:none;fill-rule:evenodd;stroke:#000000;stroke-width:1.52956808;stroke-linecap:butt;stroke-linejoin:miter;stroke-miterlimit:4;stroke-dasharray:none;stroke-opacity:1"
       d="m 325.63993,410.33156 c -2.71477,-2.58864 -3.6013,-29.33081 1.73435,-29.79956 17.45462,-1.53343 39.77926,-0.8861 39.77926,-0.8861 0,0 21.52522,-0.71642 39.11307,0.95025 5.33233,0.5053 4.44912,27.21092 1.73434,29.79956 -4.34692,4.14496 -41.04726,4.19539 -41.04726,4.19539 0,0 -36.96684,-0.11458 -41.31376,-4.25954 z"
       id="path4159"
       inkscape:connector-curvature="0"
       sodipodi:nodetypes="sscsscs" />
    <path
       style="fill:none;fill-rule:evenodd;stroke:#000000;stroke-width:0.76478404;stroke-linecap:butt;stroke-linejoin:miter;stroke-miterlimit:4;stroke-dasharray:none;stroke-opacity:1"
       d="m 179.83174,243.10687 8.53111,105.95369"
       id="path4161"
       inkscape:connector-curvature="0"
       sodipodi:nodetypes="cc" />
    <path
       style="fill:none;fill-rule:evenodd;stroke:#000000;stroke-width:1.52956808;stroke-linecap:butt;stroke-linejoin:miter;stroke-miterlimit:4;stroke-dasharray:none;stroke-opacity:1"
       d="m 261.66276,161.46351 c 1.05431,0.30918 32.53627,3.31144 32.53627,3.31144 0,0 48.21302,2.38467 72.43298,2.3974 24.21998,0.0127 72.80985,-2.33325 72.80985,-2.33325 0,0 31.48196,-3.00226 32.53628,-3.31145"
       id="path4167"
       inkscape:connector-curvature="0"
       sodipodi:nodetypes="cczcc" />
    <path
       style="fill:none;fill-rule:evenodd;stroke:#000000;stroke-width:1.52956808;stroke-linecap:butt;stroke-linejoin:miter;stroke-miterlimit:4;stroke-dasharray:none;stroke-opacity:1"
       d="m 212.50603,177.38703 c 0,0 2.81272,6.24841 3.00976,14.08633 0.19704,7.83792 -2.01578,24.02314 -4.62401,32.25296 -2.60823,8.22981 -7.01337,11.62475 -8.57623,17.35307 -1.56286,5.72832 -1.20316,18.96571 -1.3306,33.01613 -0.12745,14.05043 3.30696,39.13552 1.13483,51.25052 -2.17213,12.11501 -4.13346,17.03692 -8.31371,21.00027 -4.18025,3.96336 -3.59595,3.0648 -11.35457,3.80946 -7.75862,0.74467 -22.93933,-7.07263 -34.48492,-4.59009 -11.54559,2.48255 -19.54295,15.07309 -30.63655,19.03387 -11.0936,3.96077 -24.35286,7.42015 -34.317244,4.48418 -9.964384,-2.93598 -13.833257,-4.43804 -21.146487,-17.9205 -7.313233,-13.48246 -8.096474,-63.7989 -8.096474,-63.7989"
       id="path4171"
       inkscape:connector-curvature="0"
       sodipodi:nodetypes="czzzzzzzzzzzc" />
    <path
       style="fill:none;fill-rule:evenodd;stroke:#000000;stroke-width:0.76478404;stroke-linecap:butt;stroke-linejoin:miter;stroke-miterlimit:4;stroke-dasharray:none;stroke-opacity:1"
       d="m 314.12161,285.85577 c 17.37653,6.34456 32.31704,12.51927 52.69884,12.55157 20.37427,0.0323 35.32231,-6.14286 52.69884,-12.48743"
       id="path4173"
       inkscape:connector-curvature="0"
       sodipodi:nodetypes="csc" />
    <path
       style="fill:none;fill-rule:evenodd;stroke:#000000;stroke-width:0.76478404;stroke-linecap:butt;stroke-linejoin:miter;stroke-miterlimit:4;stroke-dasharray:none;stroke-opacity:1"
       d="m 320.76194,365.06881 c 0,0 -6.76681,1.84911 -10.40096,9.39088 -3.63415,7.54177 -6.59835,32.05463 -4.13436,38.21207 2.46399,6.15744 5.04935,7.70972 13.89906,10.74344 8.84972,3.03372 46.69477,3.18978 46.69477,3.18978 0,0 37.84506,-0.0919 46.69476,-3.12563 8.84971,-3.03372 11.43507,-4.586 13.89906,-10.74344 2.46398,-6.15744 -0.50021,-30.6703 -4.13435,-38.21207 -3.63416,-7.54177 -10.40097,-9.39088 -10.40097,-9.39088"
       id="path4181"
       inkscape:connector-curvature="0"
       sodipodi:nodetypes="czzzczzzc" />
    <path
       style="fill:none;fill-rule:evenodd;stroke:#000000;stroke-width:1.52956808;stroke-linecap:butt;stroke-linejoin:miter;stroke-miterlimit:4;stroke-dasharray:none;stroke-opacity:1"
       d="m 176.29179,448.77016 -9.58395,9.94956 0.12191,43.98521 23.10074,8.40399"
       id="path4183"
       inkscape:connector-curvature="0"
       sodipodi:nodetypes="cccc" />
    <path
       style="fill:none;fill-rule:evenodd;stroke:#000000;stroke-width:1.52956808;stroke-linecap:butt;stroke-linejoin:miter;stroke-miterlimit:4;stroke-dasharray:none;stroke-opacity:1"
       d="m 162.71745,534.55427 -0.21521,-97.15311 -9.93763,-8.81262 0.0914,116.64597 z"
       id="path4215"
       inkscape:connector-curvature="0"
       sodipodi:nodetypes="ccccc" />
    <path
       style="fill:none;fill-rule:evenodd;stroke:#000000;stroke-width:1.52956808;stroke-linecap:butt;stroke-linejoin:miter;stroke-miterlimit:4;stroke-dasharray:none;stroke-opacity:1"
       d="m 152.68465,428.47951 -0.0942,-9.89239"
       id="path4217"
       inkscape:connector-curvature="0"
       sodipodi:nodetypes="cc" />
    <path
       style="fill:none;fill-rule:evenodd;stroke:#000000;stroke-width:1.52956808;stroke-linecap:butt;stroke-linejoin:miter;stroke-miterlimit:4;stroke-dasharray:none;stroke-opacity:1"
       d="m 152.68465,545.2097 -1.03635,69.05831 -6.50071,6.50072 -0.0942,-200.95684"
       id="path4219"
       inkscape:connector-curvature="0"
       sodipodi:nodetypes="cccc" />
    <path
       style="fill:none;fill-rule:evenodd;stroke:#000000;stroke-width:1.52956808;stroke-linecap:butt;stroke-linejoin:miter;stroke-miterlimit:4;stroke-dasharray:none;stroke-opacity:1"
       d="m 144.67652,621.71086 -33.11595,0.0471 -0.37685,-189.88677"
       id="path4221"
       inkscape:connector-curvature="0"
       sodipodi:nodetypes="ccc" />
    <path
       style="fill:none;fill-rule:evenodd;stroke:#000000;stroke-width:1.52956808;stroke-linecap:butt;stroke-linejoin:miter;stroke-miterlimit:4;stroke-dasharray:none;stroke-opacity:1"
       d="M 111.40079,621.9935 105.0885,614.07959 104.75876,432.7191"
       id="path4223"
       inkscape:connector-curvature="0"
       sodipodi:nodetypes="ccc" />
    <rect
       style="opacity:1;fill:#ffffff;fill-opacity:1;stroke:#000000;stroke-width:1.52956808;stroke-miterlimit:4;stroke-dasharray:none;stroke-opacity:1"
       id="rect4227"
       width="3.9971292"
       height="24.515726"
       x="162.63548"
       y="467.77933" />
    <path
       style="fill:none;fill-rule:evenodd;stroke:#000000;stroke-width:1.52956808;stroke-linecap:butt;stroke-linejoin:miter;stroke-miterlimit:4;stroke-dasharray:none;stroke-opacity:1"
       d="m 430.6848,192.39456 c 1.94791,-3.34396 11.01375,-9.06486 14.01316,-9.63226 6.88772,-1.30294 8.53167,-2.42569 20.63945,-4.0321 12.10776,-1.60641 39.69632,-8.25077 52.1224,-3.70076 12.42608,4.55001 13.77736,8.76593 19.43221,18.95204 5.65483,10.18611 2.60383,33.50362 9.1507,41.76848 6.54685,8.26486 3.83643,6.54418 18.49191,8.85564 14.65547,2.31147 58.42178,-8.53481 67.90481,-9.13726 9.48302,-0.60244 14.3585,-0.40032 17.63748,0.88934 3.27899,1.28966 22.28342,28.63647 27.9176,44.21245 5.63417,15.57597 4.80145,30.01245 6.14874,46.68991 1.34728,16.67747 4.75613,37.26746 1.6136,53.27329 -3.14252,16.00583 -11.75751,32.24572 -18.09358,40.73294 -6.33605,8.48721 -6.9941,9.7198 -14.43836,12.31631 -7.44426,2.59651 -19.80809,0.67686 -28.30932,-0.99262 -8.50121,-1.66949 -15.87848,-5.95503 -22.19808,-8.1729 -6.3196,-2.21787 -10.75284,-4.53612 -15.6791,-5.23533 -4.92627,-0.6992 -8.77047,-1.37411 -13.31297,0.53654 -4.5425,1.91065 -5.60965,-0.18661 -11.81869,11.14397 -6.20904,11.33058 -6.31336,44.11097 -11.4418,60.20005 -5.12846,16.08908 -9.15036,28.53457 -16.66772,36.4084 -7.51736,7.87382 -11.61103,8.70846 -22.46906,11.5732 -10.85805,2.86473 -30.63281,4.21612 -42.06894,1.69543 -11.43615,-2.52069 -15.7619,-1.8976 -25.05384,-12.85826 -9.29194,-10.96066 -8.6481,-41.98323 -17.69647,-55.29204 -9.04836,-13.30881 -19.50395,-20.62046 -29.78612,-24.40196 -10.28216,-3.7815 -28.96022,-3.64414 -28.96022,-3.64414 0,0 -20.56234,-0.20151 -30.84451,3.57999 -10.28216,3.7815 -20.73776,11.09315 -29.78612,24.40196 -9.04837,13.30881 -8.40452,44.33138 -17.69647,55.29204 -9.29194,10.96066 -13.61769,10.33757 -25.05383,12.85826 -11.43614,2.52069 -31.2109,1.1693 -42.06894,-1.69543 -10.85804,-2.86474 -14.95171,-3.69938 -22.46906,-11.5732 -7.51735,-7.87382 -11.53927,-20.31932 -16.66772,-36.4084 -5.12844,-16.08908 -5.23278,-48.86947 -11.44181,-60.20005 -6.20903,-11.33058 -7.27619,-9.23332 -11.81869,-11.14397 -4.54251,-1.91065 -8.3867,-1.23574 -13.31296,-0.53653 -4.92627,0.6992 -9.3595,3.01745 -15.6791,5.23532 -6.3196,2.21787 -13.69688,6.50342 -22.19809,8.1729 -8.50122,1.66948 -20.865057,3.58914 -28.309317,0.99262 -7.444259,-2.59651 -8.102309,-3.8291 -14.438363,-12.31631 -6.336055,-8.48721 -14.951058,-24.72711 -18.093582,-40.73294 -3.142523,-16.00583 0.266322,-36.59582 1.613609,-53.27329 1.347286,-16.67746 0.514565,-31.11393 6.148736,-46.68991 5.634172,-15.57598 24.638613,-42.92279 27.917602,-44.21245 3.278989,-1.28966 8.154463,-1.49178 17.637485,-0.88934 9.48303,0.60245 53.24933,11.44873 67.9048,9.13727 14.65548,-2.31147 11.94506,-0.59079 18.49193,-8.85565 6.54686,-8.26486 3.49585,-31.58237 9.15069,-41.76848 5.65485,-10.18611 7.00613,-14.40203 19.43221,-18.95204 12.42608,-4.55 40.01463,2.09435 52.1224,3.70076 12.10777,1.60641 13.75173,2.72916 20.63945,4.0321 2.99941,0.5674 12.06526,6.2883 14.01315,9.63226 19.6886,45.27179 29.54614,63.90887 63.86436,63.94361 34.31821,0.0347 44.17575,-18.60767 63.86435,-63.87946 z"
       id="path4151-6"
       inkscape:connector-curvature="0"
       sodipodi:nodetypes="cszzzzzzzzzzzzzzzzzzzzzzzzczzzzzzzzzzzzzzzzzzzzzzzzsczc" />
    <path
       style="fill:none;fill-rule:evenodd;stroke:#000000;stroke-width:1.52956808;stroke-linecap:butt;stroke-linejoin:miter;stroke-miterlimit:4;stroke-dasharray:none;stroke-opacity:1"
       d="m 476.72215,176.67123 c 0,0 -0.95736,-10.70919 -2.42179,-13.77036 -1.46445,-3.06117 -17.34597,-8.54513 -21.75143,-10.32443 -4.40545,-1.7793 -7.18207,-2.73793 -11.86562,-3.25548 -4.68356,-0.51755 -49.43001,-0.4018 -74.0513,-0.41217 -24.62127,-0.0104 -68.99086,-0.16953 -73.67442,0.34802 -4.68356,0.51755 -7.46018,1.47618 -11.86563,3.25548 -4.40545,1.7793 -20.28698,7.26326 -21.75142,10.32443 -1.46443,3.06117 -2.42181,13.77036 -2.42181,13.77036"
       id="path4153-7"
       inkscape:connector-curvature="0"
       sodipodi:nodetypes="czzzzzzzc" />
    <path
       style="fill:none;fill-rule:evenodd;stroke:#000000;stroke-width:1.52956808;stroke-linecap:butt;stroke-linejoin:miter;stroke-miterlimit:4;stroke-dasharray:none;stroke-opacity:1"
       d="m 434.2944,189.31549 c 0,0 1.95128,9.27736 2.31651,17.77497 0.36523,8.49762 -0.46428,24.60888 -3.24746,38.53447 -2.78318,13.92558 -11.24542,30.57803 -14.21573,44.31033 -2.97029,13.73231 -4.35541,37.51235 -4.35541,37.51235 l -2.2962,36.06644 c -0.11412,1.8782 -0.54119,4.81108 -4.5414,3.1613 -17.44739,-7.18353 -27.12444,-7.52436 -41.93369,-6.9754 -14.80923,-0.6131 -22.88745,-0.27228 -40.33484,6.91125 -4.00021,1.64978 -4.42727,-1.2831 -4.5414,-3.1613 l -2.2962,-36.06643 c 0,0 -1.38512,-23.78005 -4.35541,-37.51235 -2.9703,-13.73231 -11.43254,-30.38475 -14.21572,-44.31034 -2.78318,-13.92558 -3.61269,-30.03685 -3.24746,-38.53447 0.36523,-8.49761 2.31651,-17.77497 2.31651,-17.77497"
       id="path4155-5"
       inkscape:connector-curvature="0"
       sodipodi:nodetypes="czzzccccccczzzc" />
    <path
       style="fill:none;fill-rule:evenodd;stroke:#000000;stroke-width:0.76478404;stroke-linecap:butt;stroke-linejoin:miter;stroke-miterlimit:4;stroke-dasharray:none;stroke-opacity:1"
       d="M 553.80915,243.17102 545.27804,349.1247"
       id="path4161-5"
       inkscape:connector-curvature="0"
       sodipodi:nodetypes="cc" />
    <path
       style="fill:none;fill-rule:evenodd;stroke:#000000;stroke-width:1.52956808;stroke-linecap:butt;stroke-linejoin:miter;stroke-miterlimit:4;stroke-dasharray:none;stroke-opacity:1"
       d="m 521.13486,177.45118 c 0,0 -2.81271,6.24841 -3.00975,14.08633 -0.19705,7.83792 2.01577,24.02314 4.624,32.25295 2.60823,8.22982 7.01337,11.62476 8.57623,17.35308 1.56287,5.72832 1.20316,18.96571 1.3306,33.01613 0.12745,14.05043 -3.30695,39.13552 -1.13483,51.25052 2.17213,12.115 4.13347,17.03692 8.31372,21.00027 4.18024,3.96335 3.59594,3.06479 11.35457,3.80946 7.75862,0.74467 22.93932,-7.07264 34.48491,-4.59009 11.54561,2.48255 19.54295,15.07309 30.63656,19.03387 11.0936,3.96077 24.35285,7.42015 34.31724,4.48417 9.96439,-2.93597 13.83326,-4.43803 21.14648,-17.92049 7.31324,-13.48246 8.09649,-63.7989 8.09649,-63.7989"
       id="path4171-2"
       inkscape:connector-curvature="0"
       sodipodi:nodetypes="czzzzzzzzzzzc" />
    <path
       style="fill:none;fill-rule:evenodd;stroke:#000000;stroke-width:1.52956808;stroke-linecap:butt;stroke-linejoin:miter;stroke-miterlimit:4;stroke-dasharray:none;stroke-opacity:1"
       d="m 557.3491,448.83431 9.58395,9.94956 -0.1219,43.98521 -23.10075,8.40399"
       id="path4183-2"
       inkscape:connector-curvature="0"
       sodipodi:nodetypes="cccc" />
    <path
       style="fill:none;fill-rule:evenodd;stroke:#000000;stroke-width:1.52956808;stroke-linecap:butt;stroke-linejoin:miter;stroke-miterlimit:4;stroke-dasharray:none;stroke-opacity:1"
       d="m 570.92345,534.61842 0.21521,-97.15311 9.93764,-8.81262 -0.0914,116.64597 z"
       id="path4215-7"
       inkscape:connector-curvature="0"
       sodipodi:nodetypes="ccccc" />
    <path
       style="fill:none;fill-rule:evenodd;stroke:#000000;stroke-width:1.52956808;stroke-linecap:butt;stroke-linejoin:miter;stroke-miterlimit:4;stroke-dasharray:none;stroke-opacity:1"
       d="m 580.95624,428.54366 0.0942,-9.89239"
       id="path4217-0"
       inkscape:connector-curvature="0"
       sodipodi:nodetypes="cc" />
    <path
       style="fill:none;fill-rule:evenodd;stroke:#000000;stroke-width:1.52956808;stroke-linecap:butt;stroke-linejoin:miter;stroke-miterlimit:4;stroke-dasharray:none;stroke-opacity:1"
       d="m 580.95624,545.27385 1.03634,69.0583 6.50072,6.50072 0.0942,-200.95683"
       id="path4219-9"
       inkscape:connector-curvature="0"
       sodipodi:nodetypes="cccc" />
    <path
       style="fill:none;fill-rule:evenodd;stroke:#000000;stroke-width:1.52956808;stroke-linecap:butt;stroke-linejoin:miter;stroke-miterlimit:4;stroke-dasharray:none;stroke-opacity:1"
       d="m 588.96437,621.77501 33.11595,0.0471 0.37686,-189.88678"
       id="path4221-3"
       inkscape:connector-curvature="0"
       sodipodi:nodetypes="ccc" />
    <path
       style="fill:none;fill-rule:evenodd;stroke:#000000;stroke-width:1.52956808;stroke-linecap:butt;stroke-linejoin:miter;stroke-miterlimit:4;stroke-dasharray:none;stroke-opacity:1"
       d="m 622.24011,622.05765 6.31228,-7.91391 0.32975,-181.36049"
       id="path4223-6"
       inkscape:connector-curvature="0"
       sodipodi:nodetypes="ccc" />
    <rect
       style="opacity:1;fill:#ffffff;fill-opacity:1;stroke:#000000;stroke-width:1.52956808;stroke-miterlimit:4;stroke-dasharray:none;stroke-opacity:1"
       id="rect4227-0"
       width="3.9971292"
       height="24.515726"
       x="-571.00543"
       y="467.84348"
       transform="scale(-1,1)" />
    <circle
       transform="matrix(-0.99648269,0.08379888,0.08379888,0.99648269,0,0)"
       r="10.308418"
       cy="399.63898"
       cx="-96.698418"
       id="path4182-7-1-2"
       style="opacity:1;fill:none;fill-opacity:1;stroke:#000000;stroke-width:1.75923562;stroke-miterlimit:4;stroke-dasharray:none;stroke-opacity:1" />
    <circle
       transform="matrix(-0.99648269,0.08379888,0.08379888,0.99648269,0,0)"
       r="10.308418"
       cy="439.3551"
       cx="-568.97711"
       id="path4182-7-1-61"
       style="opacity:1;fill:none;fill-opacity:1;stroke:#000000;stroke-width:1.75923562;stroke-miterlimit:4;stroke-dasharray:none;stroke-opacity:1" />
    <circle
       transform="matrix(-0.99648269,0.08379888,0.08379888,0.99648269,0,0)"
       r="10.308418"
       cy="332.68518"
       cx="-228.38834"
       id="path4182-7-1"
       style="opacity:1;fill:none;fill-opacity:1;stroke:#000000;stroke-width:1.75923562;stroke-miterlimit:4;stroke-dasharray:none;stroke-opacity:1" />
    <circle
       transform="matrix(-0.99648269,0.08379888,0.08379888,0.99648269,0,0)"
       r="10.308418"
       cy="351.34833"
       cx="-450.31854"
       id="path4182-7-1-8"
       style="opacity:1;fill:none;fill-opacity:1;stroke:#000000;stroke-width:1.75923562;stroke-miterlimit:4;stroke-dasharray:none;stroke-opacity:1" />
    <circle
       transform="matrix(-0.99648269,0.08379888,0.08379888,0.99648269,0,0)"
       r="10.308418"
       cy="476.59097"
       cx="-196.31882"
       id="path4182-7-1-6"
       style="opacity:1;fill:none;fill-opacity:1;stroke:#000000;stroke-width:1.75923562;stroke-miterlimit:4;stroke-dasharray:none;stroke-opacity:1" />
    <circle
       transform="matrix(-0.99648269,0.08379888,0.08379888,0.99648269,0,0)"
       r="10.308418"
       cy="498.5889"
       cx="-457.90421"
       id="path4182-7-1-7"
       style="opacity:1;fill:none;fill-opacity:1;stroke:#000000;stroke-width:1.75923562;stroke-miterlimit:4;stroke-dasharray:none;stroke-opacity:1" />
    <ellipse
       style="opacity:1;fill:#ffffff;fill-opacity:1;stroke:#000000;stroke-width:1.52999997;stroke-miterlimit:4;stroke-dasharray:none;stroke-opacity:1"
       id="path5153"
       cx="366.82043"
       cy="370.57648"
       rx="25.714285"
       ry="3.9285715" />
    <text
       xml:space="preserve"
       style="font-style:normal;font-weight:normal;font-size:25px;line-height:125%;font-family:Sans;letter-spacing:0px;word-spacing:0px;fill:#000000;fill-opacity:1;stroke:none;stroke-width:1px;stroke-linecap:butt;stroke-linejoin:miter;stroke-opacity:1"
       x="144.80177"
       y="395.95886"
       id="text4825-7"
       sodipodi:linespacing="125%"><tspan
         sodipodi:role="line"
         x="144.80177"
         y="395.95886"
         style="font-style:normal;font-variant:normal;font-weight:normal;font-stretch:normal;font-size:17.5px;font-family:'Droid Sans Mono';-inkscape-font-specification:'Droid Sans Mono'"
         id="tspan5270">27</tspan></text>
    <text
       xml:space="preserve"
       style="font-style:normal;font-weight:normal;font-size:25px;line-height:125%;font-family:Sans;letter-spacing:0px;word-spacing:0px;fill:#000000;fill-opacity:1;stroke:none;stroke-width:1px;stroke-linecap:butt;stroke-linejoin:miter;stroke-opacity:1"
       x="262.80179"
       y="335.95886"
       id="text4825-7-9"
       sodipodi:linespacing="125%"><tspan
         sodipodi:role="line"
         id="tspan4827-7-2"
         x="262.80179"
         y="335.95886"
         style="font-style:normal;font-variant:normal;font-weight:normal;font-stretch:normal;font-size:17.5px;font-family:'Droid Sans Mono';-inkscape-font-specification:'Droid Sans Mono'">26</tspan></text>
    <text
       xml:space="preserve"
       style="font-style:normal;font-weight:normal;font-size:25px;line-height:125%;font-family:Sans;letter-spacing:0px;word-spacing:0px;fill:#000000;fill-opacity:1;stroke:none;stroke-width:1px;stroke-linecap:butt;stroke-linejoin:miter;stroke-opacity:1"
       x="240.80177"
       y="484.95886"
       id="text4825-7-0"
       sodipodi:linespacing="125%"><tspan
         sodipodi:role="line"
         id="tspan4827-7-23"
         x="240.80177"
         y="484.95886"
         style="font-style:normal;font-variant:normal;font-weight:normal;font-stretch:normal;font-size:17.5px;font-family:'Droid Sans Mono';-inkscape-font-specification:'Droid Sans Mono'">28</tspan></text>
    <text
       xml:space="preserve"
       style="font-style:normal;font-weight:normal;font-size:25px;line-height:125%;font-family:Sans;letter-spacing:0px;word-spacing:0px;fill:#000000;fill-opacity:1;stroke:none;stroke-width:1px;stroke-linecap:butt;stroke-linejoin:miter;stroke-opacity:1"
       x="487.80176"
       y="335.95886"
       id="text4825-7-7"
       sodipodi:linespacing="125%"><tspan
         sodipodi:role="line"
         id="tspan4827-7-5"
         x="487.80176"
         y="335.95886"
         style="font-style:normal;font-variant:normal;font-weight:normal;font-stretch:normal;font-size:17.5px;font-family:'Droid Sans Mono';-inkscape-font-specification:'Droid Sans Mono'">29</tspan></text>
    <text
       xml:space="preserve"
       style="font-style:normal;font-weight:normal;font-size:25px;line-height:125%;font-family:Sans;letter-spacing:0px;word-spacing:0px;fill:#000000;fill-opacity:1;stroke:none;stroke-width:1px;stroke-linecap:butt;stroke-linejoin:miter;stroke-opacity:1"
       x="507.80176"
       y="484.95886"
       id="text4825-7-92"
       sodipodi:linespacing="125%"><tspan
         sodipodi:role="line"
         id="tspan4827-7-28"
         x="507.80176"
         y="484.95886"
         style="font-style:normal;font-variant:normal;font-weight:normal;font-stretch:normal;font-size:17.5px;font-family:'Droid Sans Mono';-inkscape-font-specification:'Droid Sans Mono'">31</tspan></text>
    <text
       xml:space="preserve"
       style="font-style:normal;font-weight:normal;font-size:25px;line-height:125%;font-family:Sans;letter-spacing:0px;word-spacing:0px;fill:#000000;fill-opacity:1;stroke:none;stroke-width:1px;stroke-linecap:butt;stroke-linejoin:miter;stroke-opacity:1"
       x="613.80176"
       y="411.95886"
       id="text4825-7-97"
       sodipodi:linespacing="125%"><tspan
         sodipodi:role="line"
         id="tspan4827-7-3"
         x="613.80176"
         y="411.95886"
         style="font-style:normal;font-variant:normal;font-weight:normal;font-stretch:normal;font-size:17.5px;font-family:'Droid Sans Mono';-inkscape-font-specification:'Droid Sans Mono'">30</tspan></text>
  </g>
</svg>
