; NON-PLATED HOLES START AT T1
; THROUGH (PLATED) HOLES START AT T100
M48
INCH
T100C0.033622
T101C0.035433
T102C0.032000
T103C0.035000
T104C0.086614
T105C0.076929
T106C0.015748
%
T100
X029019Y014686
X028547Y015631
X028547Y014371
X029019Y015316
X028547Y015001
T101
X010019Y007686
X010019Y003686
X025019Y003686
X023019Y006686
X025019Y006686
X023019Y007686
X003019Y017686
X001019Y010686
X008019Y006686
X001019Y012686
X005019Y017686
X008019Y003686
X023019Y005686
X010029Y005668
X008019Y004686
X010019Y006686
X004019Y010686
X002019Y017686
X001019Y017686
X005019Y010686
X020019Y004686
X010019Y004686
X001019Y011686
X025019Y007686
X025019Y005686
X027019Y013686
X023019Y004686
X003019Y010686
X012019Y005686
X008023Y007648
X008023Y005717
X006019Y017686
X023019Y003686
X004019Y017686
X012019Y004686
X027019Y012686
X025019Y004686
X020019Y003686
T102
X018019Y009686
X015019Y014686
X018019Y016686
X018019Y014686
X015019Y007686
X015019Y015686
X018019Y005686
X015019Y013686
X015019Y005686
X015019Y008686
X018019Y011686
X018019Y015686
X015019Y006686
X018019Y012686
X015019Y011686
X018019Y003686
X015019Y017686
X015019Y016686
X015019Y009686
X018019Y007686
X018019Y013686
X018019Y008686
X018019Y017686
X015019Y012686
X018019Y004686
X015019Y004686
X015019Y003686
X018019Y006686
T103
X027019Y009686
X004019Y012686
X004019Y015686
X007019Y007686
X026019Y006686
X025019Y015686
X003019Y005686
X011019Y012686
X003019Y007686
X011019Y016686
X008019Y010686
X011019Y013686
X025019Y014686
X025019Y016686
X008019Y016686
X008019Y014686
X022019Y011686
X026019Y004686
X003019Y003686
X011019Y017686
X011019Y010686
X008019Y012686
X006019Y012686
X027019Y018686
X022019Y012686
X031019Y009686
X025019Y012686
X007019Y003686
X027019Y014686
X011019Y015686
X008019Y013686
X006019Y015686
X030019Y004686
X025019Y011686
X007019Y004686
X003019Y015686
X031019Y008686
X031019Y004686
X008019Y011686
X030019Y006686
X022019Y013686
X007019Y005686
X011019Y011686
X008019Y015686
X003019Y012686
X022019Y014686
X005019Y012686
X030019Y007686
X030019Y005686
X003019Y004686
X026019Y005686
X022019Y010686
X003019Y006686
X030019Y003686
X011019Y014686
X022019Y017686
X026019Y007686
X025019Y017686
X025019Y010686
X005019Y015686
X026019Y003686
X025019Y013686
X008019Y017686
X022019Y016686
X022019Y015686
X007019Y006686
T104
X002019Y001686
X001019Y014686
X028019Y017686
X028019Y001686
T105
X030554Y016438
X030554Y013564
T106
X012025Y007683
X008023Y008692
X006019Y003686
X010019Y013686
X012019Y009686
X006019Y001686
X027019Y001686
X007019Y010686
X021019Y007686
T00
M30
