G04 MADE WITH FRITZING*
G04 WWW.FRITZING.ORG*
G04 DOUBLE SIDED*
G04 HOLES PLATED*
G04 CONTOUR ON CENTER OF CONTOUR VECTOR*
%ASAXBY*%
%FSLAX23Y23*%
%MOIN*%
%OFA0B0*%
%SFA1.0B1.0*%
%ADD10C,0.062000*%
%ADD11C,0.085000*%
%ADD12C,0.085433*%
%ADD13C,0.049370*%
%ADD14C,0.059370*%
%ADD15C,0.102677*%
%ADD16C,0.135984*%
%ADD17R,0.085000X0.085000*%
%ADD18R,0.001000X0.001000*%
%LNMASK0*%
G90*
G70*
G54D10*
X1502Y969D03*
X1502Y869D03*
X1502Y769D03*
X1502Y669D03*
X1502Y569D03*
X1502Y469D03*
X1502Y369D03*
X1802Y369D03*
X1802Y469D03*
X1802Y569D03*
X1802Y669D03*
X1802Y769D03*
X1802Y869D03*
X1802Y969D03*
X1502Y1769D03*
X1502Y1669D03*
X1502Y1569D03*
X1502Y1469D03*
X1502Y1369D03*
X1502Y1269D03*
X1502Y1169D03*
X1802Y1169D03*
X1802Y1269D03*
X1802Y1369D03*
X1802Y1469D03*
X1802Y1569D03*
X1802Y1669D03*
X1802Y1769D03*
G54D11*
X1102Y1069D03*
X802Y1069D03*
X1102Y1169D03*
X802Y1169D03*
X1102Y1269D03*
X802Y1269D03*
X1102Y1369D03*
X802Y1369D03*
X1102Y1469D03*
X802Y1469D03*
X1102Y1569D03*
X802Y1569D03*
X1102Y1669D03*
X802Y1669D03*
X1102Y1769D03*
X802Y1769D03*
X2202Y1769D03*
X2502Y1769D03*
X2202Y1669D03*
X2502Y1669D03*
X2202Y1569D03*
X2502Y1569D03*
X2202Y1469D03*
X2502Y1469D03*
X2202Y1369D03*
X2502Y1369D03*
X2202Y1269D03*
X2502Y1269D03*
X2202Y1169D03*
X2502Y1169D03*
X2202Y1069D03*
X2502Y1069D03*
G54D12*
X2502Y369D03*
X2502Y469D03*
X2502Y569D03*
X2502Y669D03*
X2502Y769D03*
X2302Y369D03*
X2302Y469D03*
X2302Y569D03*
X2302Y669D03*
X2302Y769D03*
G54D11*
X302Y369D03*
X702Y369D03*
X302Y469D03*
X702Y469D03*
X302Y669D03*
X702Y669D03*
X302Y569D03*
X702Y569D03*
X302Y769D03*
X702Y769D03*
X2602Y369D03*
X3002Y369D03*
X2602Y469D03*
X3002Y469D03*
X2602Y569D03*
X3002Y569D03*
X2602Y669D03*
X3002Y669D03*
X2602Y769D03*
X3002Y769D03*
G54D13*
X2102Y769D03*
G54D12*
X1002Y769D03*
X1002Y669D03*
X1003Y567D03*
X1002Y469D03*
X1002Y369D03*
X802Y765D03*
X802Y669D03*
X802Y572D03*
X802Y469D03*
X802Y369D03*
G54D13*
X1203Y768D03*
X802Y869D03*
X1202Y969D03*
G54D11*
X602Y1569D03*
X602Y1269D03*
X502Y1569D03*
X502Y1269D03*
X402Y1569D03*
X402Y1269D03*
X302Y1569D03*
X302Y1269D03*
G54D12*
X102Y1769D03*
X102Y1269D03*
X102Y1169D03*
X402Y1069D03*
X302Y1069D03*
X502Y1069D03*
X502Y1769D03*
X602Y1769D03*
X402Y1769D03*
X302Y1769D03*
X202Y1769D03*
X102Y1069D03*
X2702Y1369D03*
X2702Y1269D03*
G54D14*
X2855Y1437D03*
X2855Y1500D03*
X2855Y1563D03*
X2902Y1469D03*
X2902Y1532D03*
G54D15*
X3055Y1644D03*
X3055Y1356D03*
G54D12*
X2002Y469D03*
X2002Y369D03*
X1202Y469D03*
X1202Y569D03*
G54D13*
X702Y1069D03*
X602Y369D03*
X602Y169D03*
X2702Y169D03*
G54D11*
X2702Y969D03*
X3102Y969D03*
X2702Y1869D03*
X2702Y1469D03*
X3102Y869D03*
X3102Y469D03*
G54D13*
X1002Y1369D03*
G54D16*
X2802Y1769D03*
X2802Y169D03*
X202Y169D03*
X102Y1469D03*
G54D17*
X1102Y1069D03*
X2202Y1769D03*
X602Y1569D03*
G54D18*
X1469Y1800D02*
X1533Y1800D01*
X1769Y1800D02*
X1833Y1800D01*
X1466Y1799D02*
X1536Y1799D01*
X1766Y1799D02*
X1836Y1799D01*
X1463Y1798D02*
X1539Y1798D01*
X1763Y1798D02*
X1839Y1798D01*
X1461Y1797D02*
X1541Y1797D01*
X1761Y1797D02*
X1841Y1797D01*
X1459Y1796D02*
X1543Y1796D01*
X1759Y1796D02*
X1843Y1796D01*
X1458Y1795D02*
X1544Y1795D01*
X1758Y1795D02*
X1844Y1795D01*
X1456Y1794D02*
X1546Y1794D01*
X1756Y1794D02*
X1846Y1794D01*
X1455Y1793D02*
X1547Y1793D01*
X1755Y1793D02*
X1847Y1793D01*
X1454Y1792D02*
X1548Y1792D01*
X1754Y1792D02*
X1848Y1792D01*
X1453Y1791D02*
X1549Y1791D01*
X1753Y1791D02*
X1849Y1791D01*
X1452Y1790D02*
X1550Y1790D01*
X1752Y1790D02*
X1850Y1790D01*
X1451Y1789D02*
X1551Y1789D01*
X1751Y1789D02*
X1851Y1789D01*
X1451Y1788D02*
X1551Y1788D01*
X1750Y1788D02*
X1851Y1788D01*
X1450Y1787D02*
X1552Y1787D01*
X1750Y1787D02*
X1852Y1787D01*
X1449Y1786D02*
X1553Y1786D01*
X1749Y1786D02*
X1853Y1786D01*
X1449Y1785D02*
X1553Y1785D01*
X1749Y1785D02*
X1853Y1785D01*
X1448Y1784D02*
X1554Y1784D01*
X1748Y1784D02*
X1854Y1784D01*
X1448Y1783D02*
X1554Y1783D01*
X1748Y1783D02*
X1854Y1783D01*
X1447Y1782D02*
X1555Y1782D01*
X1747Y1782D02*
X1855Y1782D01*
X1447Y1781D02*
X1555Y1781D01*
X1747Y1781D02*
X1855Y1781D01*
X1446Y1780D02*
X1496Y1780D01*
X1506Y1780D02*
X1556Y1780D01*
X1746Y1780D02*
X1796Y1780D01*
X1806Y1780D02*
X1855Y1780D01*
X1446Y1779D02*
X1495Y1779D01*
X1507Y1779D02*
X1556Y1779D01*
X1746Y1779D02*
X1794Y1779D01*
X1807Y1779D02*
X1856Y1779D01*
X1446Y1778D02*
X1493Y1778D01*
X1509Y1778D02*
X1556Y1778D01*
X1746Y1778D02*
X1793Y1778D01*
X1809Y1778D02*
X1856Y1778D01*
X1445Y1777D02*
X1492Y1777D01*
X1510Y1777D02*
X1557Y1777D01*
X1745Y1777D02*
X1792Y1777D01*
X1810Y1777D02*
X1856Y1777D01*
X1445Y1776D02*
X1491Y1776D01*
X1511Y1776D02*
X1557Y1776D01*
X1745Y1776D02*
X1791Y1776D01*
X1810Y1776D02*
X1857Y1776D01*
X1445Y1775D02*
X1491Y1775D01*
X1511Y1775D02*
X1557Y1775D01*
X1745Y1775D02*
X1791Y1775D01*
X1811Y1775D02*
X1857Y1775D01*
X1445Y1774D02*
X1490Y1774D01*
X1512Y1774D02*
X1557Y1774D01*
X1745Y1774D02*
X1790Y1774D01*
X1812Y1774D02*
X1857Y1774D01*
X1445Y1773D02*
X1490Y1773D01*
X1512Y1773D02*
X1557Y1773D01*
X1745Y1773D02*
X1790Y1773D01*
X1812Y1773D02*
X1857Y1773D01*
X1445Y1772D02*
X1490Y1772D01*
X1512Y1772D02*
X1557Y1772D01*
X1745Y1772D02*
X1790Y1772D01*
X1812Y1772D02*
X1857Y1772D01*
X1445Y1771D02*
X1490Y1771D01*
X1512Y1771D02*
X1557Y1771D01*
X1744Y1771D02*
X1789Y1771D01*
X1812Y1771D02*
X1857Y1771D01*
X1445Y1770D02*
X1490Y1770D01*
X1512Y1770D02*
X1557Y1770D01*
X1744Y1770D02*
X1789Y1770D01*
X1812Y1770D02*
X1857Y1770D01*
X1445Y1769D02*
X1490Y1769D01*
X1512Y1769D02*
X1557Y1769D01*
X1744Y1769D02*
X1789Y1769D01*
X1812Y1769D02*
X1857Y1769D01*
X1445Y1768D02*
X1490Y1768D01*
X1512Y1768D02*
X1557Y1768D01*
X1744Y1768D02*
X1790Y1768D01*
X1812Y1768D02*
X1857Y1768D01*
X1445Y1767D02*
X1490Y1767D01*
X1512Y1767D02*
X1557Y1767D01*
X1745Y1767D02*
X1790Y1767D01*
X1812Y1767D02*
X1857Y1767D01*
X1445Y1766D02*
X1490Y1766D01*
X1512Y1766D02*
X1557Y1766D01*
X1745Y1766D02*
X1790Y1766D01*
X1812Y1766D02*
X1857Y1766D01*
X1445Y1765D02*
X1490Y1765D01*
X1511Y1765D02*
X1557Y1765D01*
X1745Y1765D02*
X1790Y1765D01*
X1811Y1765D02*
X1857Y1765D01*
X1445Y1764D02*
X1491Y1764D01*
X1511Y1764D02*
X1557Y1764D01*
X1745Y1764D02*
X1791Y1764D01*
X1811Y1764D02*
X1857Y1764D01*
X1445Y1763D02*
X1492Y1763D01*
X1510Y1763D02*
X1557Y1763D01*
X1745Y1763D02*
X1792Y1763D01*
X1810Y1763D02*
X1857Y1763D01*
X1446Y1762D02*
X1493Y1762D01*
X1509Y1762D02*
X1556Y1762D01*
X1745Y1762D02*
X1793Y1762D01*
X1809Y1762D02*
X1856Y1762D01*
X1446Y1761D02*
X1494Y1761D01*
X1508Y1761D02*
X1556Y1761D01*
X1746Y1761D02*
X1794Y1761D01*
X1808Y1761D02*
X1856Y1761D01*
X1446Y1760D02*
X1495Y1760D01*
X1507Y1760D02*
X1556Y1760D01*
X1746Y1760D02*
X1795Y1760D01*
X1807Y1760D02*
X1856Y1760D01*
X1447Y1759D02*
X1498Y1759D01*
X1504Y1759D02*
X1555Y1759D01*
X1746Y1759D02*
X1798Y1759D01*
X1804Y1759D02*
X1855Y1759D01*
X1447Y1758D02*
X1555Y1758D01*
X1747Y1758D02*
X1855Y1758D01*
X1447Y1757D02*
X1555Y1757D01*
X1747Y1757D02*
X1855Y1757D01*
X1448Y1756D02*
X1554Y1756D01*
X1748Y1756D02*
X1854Y1756D01*
X1448Y1755D02*
X1554Y1755D01*
X1748Y1755D02*
X1854Y1755D01*
X1449Y1754D02*
X1553Y1754D01*
X1749Y1754D02*
X1853Y1754D01*
X1449Y1753D02*
X1552Y1753D01*
X1749Y1753D02*
X1852Y1753D01*
X1450Y1752D02*
X1552Y1752D01*
X1750Y1752D02*
X1852Y1752D01*
X1451Y1751D02*
X1551Y1751D01*
X1751Y1751D02*
X1851Y1751D01*
X1452Y1750D02*
X1550Y1750D01*
X1752Y1750D02*
X1850Y1750D01*
X1453Y1749D02*
X1549Y1749D01*
X1752Y1749D02*
X1849Y1749D01*
X1453Y1748D02*
X1549Y1748D01*
X1753Y1748D02*
X1848Y1748D01*
X1454Y1747D02*
X1547Y1747D01*
X1754Y1747D02*
X1847Y1747D01*
X1456Y1746D02*
X1546Y1746D01*
X1756Y1746D02*
X1846Y1746D01*
X1457Y1745D02*
X1545Y1745D01*
X1757Y1745D02*
X1845Y1745D01*
X1458Y1744D02*
X1544Y1744D01*
X1758Y1744D02*
X1844Y1744D01*
X1460Y1743D02*
X1542Y1743D01*
X1760Y1743D02*
X1842Y1743D01*
X1462Y1742D02*
X1540Y1742D01*
X1762Y1742D02*
X1840Y1742D01*
X1464Y1741D02*
X1538Y1741D01*
X1764Y1741D02*
X1838Y1741D01*
X1467Y1740D02*
X1535Y1740D01*
X1767Y1740D02*
X1835Y1740D01*
X1472Y1739D02*
X1530Y1739D01*
X1772Y1739D02*
X1830Y1739D01*
X1469Y1700D02*
X1533Y1700D01*
X1769Y1700D02*
X1833Y1700D01*
X1466Y1699D02*
X1536Y1699D01*
X1765Y1699D02*
X1836Y1699D01*
X1463Y1698D02*
X1539Y1698D01*
X1763Y1698D02*
X1839Y1698D01*
X1461Y1697D02*
X1541Y1697D01*
X1761Y1697D02*
X1841Y1697D01*
X1459Y1696D02*
X1543Y1696D01*
X1759Y1696D02*
X1843Y1696D01*
X1458Y1695D02*
X1544Y1695D01*
X1758Y1695D02*
X1844Y1695D01*
X1456Y1694D02*
X1546Y1694D01*
X1756Y1694D02*
X1846Y1694D01*
X1455Y1693D02*
X1547Y1693D01*
X1755Y1693D02*
X1847Y1693D01*
X1454Y1692D02*
X1548Y1692D01*
X1754Y1692D02*
X1848Y1692D01*
X1453Y1691D02*
X1549Y1691D01*
X1753Y1691D02*
X1849Y1691D01*
X1452Y1690D02*
X1550Y1690D01*
X1752Y1690D02*
X1850Y1690D01*
X1451Y1689D02*
X1551Y1689D01*
X1751Y1689D02*
X1851Y1689D01*
X1451Y1688D02*
X1551Y1688D01*
X1750Y1688D02*
X1851Y1688D01*
X1450Y1687D02*
X1552Y1687D01*
X1750Y1687D02*
X1852Y1687D01*
X1449Y1686D02*
X1553Y1686D01*
X1749Y1686D02*
X1853Y1686D01*
X1449Y1685D02*
X1553Y1685D01*
X1749Y1685D02*
X1853Y1685D01*
X1448Y1684D02*
X1554Y1684D01*
X1748Y1684D02*
X1854Y1684D01*
X1448Y1683D02*
X1554Y1683D01*
X1748Y1683D02*
X1854Y1683D01*
X1447Y1682D02*
X1555Y1682D01*
X1747Y1682D02*
X1855Y1682D01*
X1447Y1681D02*
X1555Y1681D01*
X1747Y1681D02*
X1855Y1681D01*
X1446Y1680D02*
X1496Y1680D01*
X1506Y1680D02*
X1556Y1680D01*
X1746Y1680D02*
X1796Y1680D01*
X1806Y1680D02*
X1856Y1680D01*
X1446Y1679D02*
X1494Y1679D01*
X1507Y1679D02*
X1556Y1679D01*
X1746Y1679D02*
X1794Y1679D01*
X1807Y1679D02*
X1856Y1679D01*
X1446Y1678D02*
X1493Y1678D01*
X1509Y1678D02*
X1556Y1678D01*
X1746Y1678D02*
X1793Y1678D01*
X1809Y1678D02*
X1856Y1678D01*
X1445Y1677D02*
X1492Y1677D01*
X1510Y1677D02*
X1557Y1677D01*
X1745Y1677D02*
X1792Y1677D01*
X1810Y1677D02*
X1856Y1677D01*
X1445Y1676D02*
X1491Y1676D01*
X1511Y1676D02*
X1557Y1676D01*
X1745Y1676D02*
X1791Y1676D01*
X1810Y1676D02*
X1857Y1676D01*
X1445Y1675D02*
X1491Y1675D01*
X1511Y1675D02*
X1557Y1675D01*
X1745Y1675D02*
X1791Y1675D01*
X1811Y1675D02*
X1857Y1675D01*
X1445Y1674D02*
X1490Y1674D01*
X1512Y1674D02*
X1557Y1674D01*
X1745Y1674D02*
X1790Y1674D01*
X1812Y1674D02*
X1857Y1674D01*
X1445Y1673D02*
X1490Y1673D01*
X1512Y1673D02*
X1557Y1673D01*
X1745Y1673D02*
X1790Y1673D01*
X1812Y1673D02*
X1857Y1673D01*
X1445Y1672D02*
X1490Y1672D01*
X1512Y1672D02*
X1557Y1672D01*
X1745Y1672D02*
X1790Y1672D01*
X1812Y1672D02*
X1857Y1672D01*
X1445Y1671D02*
X1490Y1671D01*
X1512Y1671D02*
X1557Y1671D01*
X1744Y1671D02*
X1789Y1671D01*
X1812Y1671D02*
X1857Y1671D01*
X1445Y1670D02*
X1490Y1670D01*
X1512Y1670D02*
X1557Y1670D01*
X1744Y1670D02*
X1789Y1670D01*
X1812Y1670D02*
X1857Y1670D01*
X1445Y1669D02*
X1490Y1669D01*
X1512Y1669D02*
X1557Y1669D01*
X1744Y1669D02*
X1789Y1669D01*
X1812Y1669D02*
X1857Y1669D01*
X1445Y1668D02*
X1490Y1668D01*
X1512Y1668D02*
X1557Y1668D01*
X1745Y1668D02*
X1790Y1668D01*
X1812Y1668D02*
X1857Y1668D01*
X1445Y1667D02*
X1490Y1667D01*
X1512Y1667D02*
X1557Y1667D01*
X1745Y1667D02*
X1790Y1667D01*
X1812Y1667D02*
X1857Y1667D01*
X1445Y1666D02*
X1490Y1666D01*
X1512Y1666D02*
X1557Y1666D01*
X1745Y1666D02*
X1790Y1666D01*
X1812Y1666D02*
X1857Y1666D01*
X1445Y1665D02*
X1491Y1665D01*
X1511Y1665D02*
X1557Y1665D01*
X1745Y1665D02*
X1790Y1665D01*
X1811Y1665D02*
X1857Y1665D01*
X1445Y1664D02*
X1491Y1664D01*
X1511Y1664D02*
X1557Y1664D01*
X1745Y1664D02*
X1791Y1664D01*
X1811Y1664D02*
X1857Y1664D01*
X1445Y1663D02*
X1492Y1663D01*
X1510Y1663D02*
X1557Y1663D01*
X1745Y1663D02*
X1792Y1663D01*
X1810Y1663D02*
X1857Y1663D01*
X1446Y1662D02*
X1493Y1662D01*
X1509Y1662D02*
X1556Y1662D01*
X1745Y1662D02*
X1793Y1662D01*
X1809Y1662D02*
X1856Y1662D01*
X1446Y1661D02*
X1494Y1661D01*
X1508Y1661D02*
X1556Y1661D01*
X1746Y1661D02*
X1794Y1661D01*
X1808Y1661D02*
X1856Y1661D01*
X1446Y1660D02*
X1495Y1660D01*
X1507Y1660D02*
X1556Y1660D01*
X1746Y1660D02*
X1795Y1660D01*
X1807Y1660D02*
X1856Y1660D01*
X1447Y1659D02*
X1498Y1659D01*
X1504Y1659D02*
X1555Y1659D01*
X1746Y1659D02*
X1798Y1659D01*
X1804Y1659D02*
X1855Y1659D01*
X1447Y1658D02*
X1555Y1658D01*
X1747Y1658D02*
X1855Y1658D01*
X1447Y1657D02*
X1555Y1657D01*
X1747Y1657D02*
X1855Y1657D01*
X1448Y1656D02*
X1554Y1656D01*
X1748Y1656D02*
X1854Y1656D01*
X1448Y1655D02*
X1554Y1655D01*
X1748Y1655D02*
X1854Y1655D01*
X1449Y1654D02*
X1553Y1654D01*
X1749Y1654D02*
X1853Y1654D01*
X1450Y1653D02*
X1552Y1653D01*
X1749Y1653D02*
X1852Y1653D01*
X1450Y1652D02*
X1552Y1652D01*
X1750Y1652D02*
X1852Y1652D01*
X1451Y1651D02*
X1551Y1651D01*
X1751Y1651D02*
X1851Y1651D01*
X1452Y1650D02*
X1550Y1650D01*
X1752Y1650D02*
X1850Y1650D01*
X1453Y1649D02*
X1549Y1649D01*
X1752Y1649D02*
X1849Y1649D01*
X1453Y1648D02*
X1549Y1648D01*
X1753Y1648D02*
X1848Y1648D01*
X1455Y1647D02*
X1547Y1647D01*
X1754Y1647D02*
X1847Y1647D01*
X1456Y1646D02*
X1546Y1646D01*
X1756Y1646D02*
X1846Y1646D01*
X1457Y1645D02*
X1545Y1645D01*
X1757Y1645D02*
X1845Y1645D01*
X1458Y1644D02*
X1544Y1644D01*
X1758Y1644D02*
X1843Y1644D01*
X1460Y1643D02*
X1542Y1643D01*
X1760Y1643D02*
X1842Y1643D01*
X1462Y1642D02*
X1540Y1642D01*
X1762Y1642D02*
X1840Y1642D01*
X1464Y1641D02*
X1538Y1641D01*
X1764Y1641D02*
X1838Y1641D01*
X1467Y1640D02*
X1535Y1640D01*
X1767Y1640D02*
X1835Y1640D01*
X1472Y1639D02*
X1530Y1639D01*
X1772Y1639D02*
X1830Y1639D01*
X1469Y1600D02*
X1533Y1600D01*
X1769Y1600D02*
X1833Y1600D01*
X1465Y1599D02*
X1536Y1599D01*
X1765Y1599D02*
X1836Y1599D01*
X1463Y1598D02*
X1539Y1598D01*
X1763Y1598D02*
X1839Y1598D01*
X1461Y1597D02*
X1541Y1597D01*
X1761Y1597D02*
X1841Y1597D01*
X1459Y1596D02*
X1543Y1596D01*
X1759Y1596D02*
X1843Y1596D01*
X1458Y1595D02*
X1544Y1595D01*
X1757Y1595D02*
X1844Y1595D01*
X1456Y1594D02*
X1546Y1594D01*
X1756Y1594D02*
X1846Y1594D01*
X1455Y1593D02*
X1547Y1593D01*
X1755Y1593D02*
X1847Y1593D01*
X1454Y1592D02*
X1548Y1592D01*
X1754Y1592D02*
X1848Y1592D01*
X1453Y1591D02*
X1549Y1591D01*
X1753Y1591D02*
X1849Y1591D01*
X1452Y1590D02*
X1550Y1590D01*
X1752Y1590D02*
X1850Y1590D01*
X1451Y1589D02*
X1551Y1589D01*
X1751Y1589D02*
X1851Y1589D01*
X1450Y1588D02*
X1551Y1588D01*
X1750Y1588D02*
X1851Y1588D01*
X1450Y1587D02*
X1552Y1587D01*
X1750Y1587D02*
X1852Y1587D01*
X1449Y1586D02*
X1553Y1586D01*
X1749Y1586D02*
X1853Y1586D01*
X1449Y1585D02*
X1553Y1585D01*
X1748Y1585D02*
X1853Y1585D01*
X1448Y1584D02*
X1554Y1584D01*
X1748Y1584D02*
X1854Y1584D01*
X1448Y1583D02*
X1554Y1583D01*
X1747Y1583D02*
X1854Y1583D01*
X1447Y1582D02*
X1555Y1582D01*
X1747Y1582D02*
X1855Y1582D01*
X1447Y1581D02*
X1555Y1581D01*
X1747Y1581D02*
X1855Y1581D01*
X1446Y1580D02*
X1496Y1580D01*
X1506Y1580D02*
X1556Y1580D01*
X1746Y1580D02*
X1796Y1580D01*
X1806Y1580D02*
X1856Y1580D01*
X1446Y1579D02*
X1494Y1579D01*
X1508Y1579D02*
X1556Y1579D01*
X1746Y1579D02*
X1794Y1579D01*
X1807Y1579D02*
X1856Y1579D01*
X1446Y1578D02*
X1493Y1578D01*
X1509Y1578D02*
X1556Y1578D01*
X1746Y1578D02*
X1793Y1578D01*
X1809Y1578D02*
X1856Y1578D01*
X1445Y1577D02*
X1492Y1577D01*
X1510Y1577D02*
X1557Y1577D01*
X1745Y1577D02*
X1792Y1577D01*
X1810Y1577D02*
X1856Y1577D01*
X1445Y1576D02*
X1491Y1576D01*
X1511Y1576D02*
X1557Y1576D01*
X1745Y1576D02*
X1791Y1576D01*
X1810Y1576D02*
X1857Y1576D01*
X1445Y1575D02*
X1491Y1575D01*
X1511Y1575D02*
X1557Y1575D01*
X1745Y1575D02*
X1791Y1575D01*
X1811Y1575D02*
X1857Y1575D01*
X1445Y1574D02*
X1490Y1574D01*
X1512Y1574D02*
X1557Y1574D01*
X1745Y1574D02*
X1790Y1574D01*
X1812Y1574D02*
X1857Y1574D01*
X1445Y1573D02*
X1490Y1573D01*
X1512Y1573D02*
X1557Y1573D01*
X1745Y1573D02*
X1790Y1573D01*
X1812Y1573D02*
X1857Y1573D01*
X1445Y1572D02*
X1490Y1572D01*
X1512Y1572D02*
X1557Y1572D01*
X1745Y1572D02*
X1790Y1572D01*
X1812Y1572D02*
X1857Y1572D01*
X1445Y1571D02*
X1490Y1571D01*
X1512Y1571D02*
X1557Y1571D01*
X1744Y1571D02*
X1789Y1571D01*
X1812Y1571D02*
X1857Y1571D01*
X1445Y1570D02*
X1490Y1570D01*
X1512Y1570D02*
X1557Y1570D01*
X1744Y1570D02*
X1789Y1570D01*
X1812Y1570D02*
X1857Y1570D01*
X1445Y1569D02*
X1490Y1569D01*
X1512Y1569D02*
X1557Y1569D01*
X1744Y1569D02*
X1789Y1569D01*
X1812Y1569D02*
X1857Y1569D01*
X1445Y1568D02*
X1490Y1568D01*
X1512Y1568D02*
X1557Y1568D01*
X1745Y1568D02*
X1790Y1568D01*
X1812Y1568D02*
X1857Y1568D01*
X1445Y1567D02*
X1490Y1567D01*
X1512Y1567D02*
X1557Y1567D01*
X1745Y1567D02*
X1790Y1567D01*
X1812Y1567D02*
X1857Y1567D01*
X1445Y1566D02*
X1490Y1566D01*
X1512Y1566D02*
X1557Y1566D01*
X1745Y1566D02*
X1790Y1566D01*
X1812Y1566D02*
X1857Y1566D01*
X1445Y1565D02*
X1491Y1565D01*
X1511Y1565D02*
X1557Y1565D01*
X1745Y1565D02*
X1790Y1565D01*
X1811Y1565D02*
X1857Y1565D01*
X1445Y1564D02*
X1491Y1564D01*
X1511Y1564D02*
X1557Y1564D01*
X1745Y1564D02*
X1791Y1564D01*
X1811Y1564D02*
X1857Y1564D01*
X1445Y1563D02*
X1492Y1563D01*
X1510Y1563D02*
X1557Y1563D01*
X1745Y1563D02*
X1792Y1563D01*
X1810Y1563D02*
X1857Y1563D01*
X1446Y1562D02*
X1493Y1562D01*
X1509Y1562D02*
X1556Y1562D01*
X1745Y1562D02*
X1793Y1562D01*
X1809Y1562D02*
X1856Y1562D01*
X1446Y1561D02*
X1494Y1561D01*
X1508Y1561D02*
X1556Y1561D01*
X1746Y1561D02*
X1794Y1561D01*
X1808Y1561D02*
X1856Y1561D01*
X1446Y1560D02*
X1495Y1560D01*
X1507Y1560D02*
X1556Y1560D01*
X1746Y1560D02*
X1795Y1560D01*
X1806Y1560D02*
X1856Y1560D01*
X1447Y1559D02*
X1498Y1559D01*
X1504Y1559D02*
X1555Y1559D01*
X1746Y1559D02*
X1798Y1559D01*
X1804Y1559D02*
X1855Y1559D01*
X1447Y1558D02*
X1555Y1558D01*
X1747Y1558D02*
X1855Y1558D01*
X1447Y1557D02*
X1555Y1557D01*
X1747Y1557D02*
X1854Y1557D01*
X1448Y1556D02*
X1554Y1556D01*
X1748Y1556D02*
X1854Y1556D01*
X1448Y1555D02*
X1554Y1555D01*
X1748Y1555D02*
X1854Y1555D01*
X1449Y1554D02*
X1553Y1554D01*
X1749Y1554D02*
X1853Y1554D01*
X1450Y1553D02*
X1552Y1553D01*
X1749Y1553D02*
X1852Y1553D01*
X1450Y1552D02*
X1552Y1552D01*
X1750Y1552D02*
X1852Y1552D01*
X1451Y1551D02*
X1551Y1551D01*
X1751Y1551D02*
X1851Y1551D01*
X1452Y1550D02*
X1550Y1550D01*
X1752Y1550D02*
X1850Y1550D01*
X1453Y1549D02*
X1549Y1549D01*
X1752Y1549D02*
X1849Y1549D01*
X1453Y1548D02*
X1548Y1548D01*
X1753Y1548D02*
X1848Y1548D01*
X1455Y1547D02*
X1547Y1547D01*
X1754Y1547D02*
X1847Y1547D01*
X1456Y1546D02*
X1546Y1546D01*
X1756Y1546D02*
X1846Y1546D01*
X1457Y1545D02*
X1545Y1545D01*
X1757Y1545D02*
X1845Y1545D01*
X1458Y1544D02*
X1544Y1544D01*
X1758Y1544D02*
X1843Y1544D01*
X1460Y1543D02*
X1542Y1543D01*
X1760Y1543D02*
X1842Y1543D01*
X1462Y1542D02*
X1540Y1542D01*
X1762Y1542D02*
X1840Y1542D01*
X1464Y1541D02*
X1538Y1541D01*
X1764Y1541D02*
X1838Y1541D01*
X1467Y1540D02*
X1535Y1540D01*
X1767Y1540D02*
X1835Y1540D01*
X1472Y1539D02*
X1530Y1539D01*
X1772Y1539D02*
X1830Y1539D01*
X1469Y1500D02*
X1533Y1500D01*
X1769Y1500D02*
X1833Y1500D01*
X1465Y1499D02*
X1537Y1499D01*
X1765Y1499D02*
X1836Y1499D01*
X1463Y1498D02*
X1539Y1498D01*
X1763Y1498D02*
X1839Y1498D01*
X1461Y1497D02*
X1541Y1497D01*
X1761Y1497D02*
X1841Y1497D01*
X1459Y1496D02*
X1543Y1496D01*
X1759Y1496D02*
X1843Y1496D01*
X1458Y1495D02*
X1544Y1495D01*
X1757Y1495D02*
X1844Y1495D01*
X1456Y1494D02*
X1546Y1494D01*
X1756Y1494D02*
X1846Y1494D01*
X1455Y1493D02*
X1547Y1493D01*
X1755Y1493D02*
X1847Y1493D01*
X1454Y1492D02*
X1548Y1492D01*
X1754Y1492D02*
X1848Y1492D01*
X1453Y1491D02*
X1549Y1491D01*
X1753Y1491D02*
X1849Y1491D01*
X1452Y1490D02*
X1550Y1490D01*
X1752Y1490D02*
X1850Y1490D01*
X1451Y1489D02*
X1551Y1489D01*
X1751Y1489D02*
X1851Y1489D01*
X1450Y1488D02*
X1551Y1488D01*
X1750Y1488D02*
X1851Y1488D01*
X1450Y1487D02*
X1552Y1487D01*
X1750Y1487D02*
X1852Y1487D01*
X1449Y1486D02*
X1553Y1486D01*
X1749Y1486D02*
X1853Y1486D01*
X1449Y1485D02*
X1553Y1485D01*
X1748Y1485D02*
X1853Y1485D01*
X1448Y1484D02*
X1554Y1484D01*
X1748Y1484D02*
X1854Y1484D01*
X1448Y1483D02*
X1554Y1483D01*
X1747Y1483D02*
X1854Y1483D01*
X1447Y1482D02*
X1555Y1482D01*
X1747Y1482D02*
X1855Y1482D01*
X1447Y1481D02*
X1555Y1481D01*
X1747Y1481D02*
X1855Y1481D01*
X1446Y1480D02*
X1496Y1480D01*
X1506Y1480D02*
X1556Y1480D01*
X1746Y1480D02*
X1796Y1480D01*
X1806Y1480D02*
X1856Y1480D01*
X1446Y1479D02*
X1494Y1479D01*
X1508Y1479D02*
X1556Y1479D01*
X1746Y1479D02*
X1794Y1479D01*
X1807Y1479D02*
X1856Y1479D01*
X1446Y1478D02*
X1493Y1478D01*
X1509Y1478D02*
X1556Y1478D01*
X1746Y1478D02*
X1793Y1478D01*
X1809Y1478D02*
X1856Y1478D01*
X1445Y1477D02*
X1492Y1477D01*
X1510Y1477D02*
X1557Y1477D01*
X1745Y1477D02*
X1792Y1477D01*
X1810Y1477D02*
X1856Y1477D01*
X1445Y1476D02*
X1491Y1476D01*
X1511Y1476D02*
X1557Y1476D01*
X1745Y1476D02*
X1791Y1476D01*
X1810Y1476D02*
X1857Y1476D01*
X1445Y1475D02*
X1491Y1475D01*
X1511Y1475D02*
X1557Y1475D01*
X1745Y1475D02*
X1791Y1475D01*
X1811Y1475D02*
X1857Y1475D01*
X1445Y1474D02*
X1490Y1474D01*
X1512Y1474D02*
X1557Y1474D01*
X1745Y1474D02*
X1790Y1474D01*
X1812Y1474D02*
X1857Y1474D01*
X1445Y1473D02*
X1490Y1473D01*
X1512Y1473D02*
X1557Y1473D01*
X1745Y1473D02*
X1790Y1473D01*
X1812Y1473D02*
X1857Y1473D01*
X1445Y1472D02*
X1490Y1472D01*
X1512Y1472D02*
X1557Y1472D01*
X1745Y1472D02*
X1790Y1472D01*
X1812Y1472D02*
X1857Y1472D01*
X1445Y1471D02*
X1490Y1471D01*
X1512Y1471D02*
X1557Y1471D01*
X1744Y1471D02*
X1789Y1471D01*
X1812Y1471D02*
X1857Y1471D01*
X1445Y1470D02*
X1490Y1470D01*
X1512Y1470D02*
X1557Y1470D01*
X1744Y1470D02*
X1789Y1470D01*
X1812Y1470D02*
X1857Y1470D01*
X1445Y1469D02*
X1490Y1469D01*
X1512Y1469D02*
X1557Y1469D01*
X1744Y1469D02*
X1789Y1469D01*
X1812Y1469D02*
X1857Y1469D01*
X1445Y1468D02*
X1490Y1468D01*
X1512Y1468D02*
X1557Y1468D01*
X1745Y1468D02*
X1790Y1468D01*
X1812Y1468D02*
X1857Y1468D01*
X1445Y1467D02*
X1490Y1467D01*
X1512Y1467D02*
X1557Y1467D01*
X1745Y1467D02*
X1790Y1467D01*
X1812Y1467D02*
X1857Y1467D01*
X1445Y1466D02*
X1490Y1466D01*
X1512Y1466D02*
X1557Y1466D01*
X1745Y1466D02*
X1790Y1466D01*
X1812Y1466D02*
X1857Y1466D01*
X1445Y1465D02*
X1491Y1465D01*
X1511Y1465D02*
X1557Y1465D01*
X1745Y1465D02*
X1790Y1465D01*
X1811Y1465D02*
X1857Y1465D01*
X1445Y1464D02*
X1491Y1464D01*
X1511Y1464D02*
X1557Y1464D01*
X1745Y1464D02*
X1791Y1464D01*
X1811Y1464D02*
X1857Y1464D01*
X1445Y1463D02*
X1492Y1463D01*
X1510Y1463D02*
X1557Y1463D01*
X1745Y1463D02*
X1792Y1463D01*
X1810Y1463D02*
X1857Y1463D01*
X1446Y1462D02*
X1493Y1462D01*
X1509Y1462D02*
X1556Y1462D01*
X1746Y1462D02*
X1793Y1462D01*
X1809Y1462D02*
X1856Y1462D01*
X1446Y1461D02*
X1494Y1461D01*
X1508Y1461D02*
X1556Y1461D01*
X1746Y1461D02*
X1794Y1461D01*
X1808Y1461D02*
X1856Y1461D01*
X1446Y1460D02*
X1495Y1460D01*
X1507Y1460D02*
X1556Y1460D01*
X1746Y1460D02*
X1795Y1460D01*
X1806Y1460D02*
X1856Y1460D01*
X1447Y1459D02*
X1498Y1459D01*
X1504Y1459D02*
X1555Y1459D01*
X1746Y1459D02*
X1798Y1459D01*
X1804Y1459D02*
X1855Y1459D01*
X1447Y1458D02*
X1555Y1458D01*
X1747Y1458D02*
X1855Y1458D01*
X1447Y1457D02*
X1555Y1457D01*
X1747Y1457D02*
X1854Y1457D01*
X1448Y1456D02*
X1554Y1456D01*
X1748Y1456D02*
X1854Y1456D01*
X1448Y1455D02*
X1554Y1455D01*
X1748Y1455D02*
X1853Y1455D01*
X1449Y1454D02*
X1553Y1454D01*
X1749Y1454D02*
X1853Y1454D01*
X1450Y1453D02*
X1552Y1453D01*
X1749Y1453D02*
X1852Y1453D01*
X1450Y1452D02*
X1552Y1452D01*
X1750Y1452D02*
X1852Y1452D01*
X1451Y1451D02*
X1551Y1451D01*
X1751Y1451D02*
X1851Y1451D01*
X1452Y1450D02*
X1550Y1450D01*
X1752Y1450D02*
X1850Y1450D01*
X1453Y1449D02*
X1549Y1449D01*
X1752Y1449D02*
X1849Y1449D01*
X1453Y1448D02*
X1548Y1448D01*
X1753Y1448D02*
X1848Y1448D01*
X1455Y1447D02*
X1547Y1447D01*
X1754Y1447D02*
X1847Y1447D01*
X1456Y1446D02*
X1546Y1446D01*
X1756Y1446D02*
X1846Y1446D01*
X1457Y1445D02*
X1545Y1445D01*
X1757Y1445D02*
X1845Y1445D01*
X1458Y1444D02*
X1543Y1444D01*
X1758Y1444D02*
X1843Y1444D01*
X1460Y1443D02*
X1542Y1443D01*
X1760Y1443D02*
X1842Y1443D01*
X1462Y1442D02*
X1540Y1442D01*
X1762Y1442D02*
X1840Y1442D01*
X1464Y1441D02*
X1538Y1441D01*
X1764Y1441D02*
X1837Y1441D01*
X1467Y1440D02*
X1535Y1440D01*
X1767Y1440D02*
X1834Y1440D01*
X1472Y1439D02*
X1530Y1439D01*
X1772Y1439D02*
X1830Y1439D01*
X1469Y1400D02*
X1533Y1400D01*
X1769Y1400D02*
X1833Y1400D01*
X1465Y1399D02*
X1537Y1399D01*
X1765Y1399D02*
X1837Y1399D01*
X1463Y1398D02*
X1539Y1398D01*
X1763Y1398D02*
X1839Y1398D01*
X1461Y1397D02*
X1541Y1397D01*
X1761Y1397D02*
X1841Y1397D01*
X1459Y1396D02*
X1543Y1396D01*
X1759Y1396D02*
X1843Y1396D01*
X1458Y1395D02*
X1544Y1395D01*
X1757Y1395D02*
X1844Y1395D01*
X1456Y1394D02*
X1546Y1394D01*
X1756Y1394D02*
X1846Y1394D01*
X1455Y1393D02*
X1547Y1393D01*
X1755Y1393D02*
X1847Y1393D01*
X1454Y1392D02*
X1548Y1392D01*
X1754Y1392D02*
X1848Y1392D01*
X1453Y1391D02*
X1549Y1391D01*
X1753Y1391D02*
X1849Y1391D01*
X1452Y1390D02*
X1550Y1390D01*
X1752Y1390D02*
X1850Y1390D01*
X1451Y1389D02*
X1551Y1389D01*
X1751Y1389D02*
X1851Y1389D01*
X1450Y1388D02*
X1551Y1388D01*
X1750Y1388D02*
X1851Y1388D01*
X1450Y1387D02*
X1552Y1387D01*
X1750Y1387D02*
X1852Y1387D01*
X1449Y1386D02*
X1553Y1386D01*
X1749Y1386D02*
X1853Y1386D01*
X1449Y1385D02*
X1553Y1385D01*
X1748Y1385D02*
X1853Y1385D01*
X1448Y1384D02*
X1554Y1384D01*
X1748Y1384D02*
X1854Y1384D01*
X1448Y1383D02*
X1554Y1383D01*
X1747Y1383D02*
X1854Y1383D01*
X1447Y1382D02*
X1555Y1382D01*
X1747Y1382D02*
X1855Y1382D01*
X1447Y1381D02*
X1555Y1381D01*
X1747Y1381D02*
X1855Y1381D01*
X1446Y1380D02*
X1496Y1380D01*
X1506Y1380D02*
X1556Y1380D01*
X1746Y1380D02*
X1796Y1380D01*
X1806Y1380D02*
X1856Y1380D01*
X1446Y1379D02*
X1494Y1379D01*
X1508Y1379D02*
X1556Y1379D01*
X1746Y1379D02*
X1794Y1379D01*
X1807Y1379D02*
X1856Y1379D01*
X1446Y1378D02*
X1493Y1378D01*
X1509Y1378D02*
X1556Y1378D01*
X1746Y1378D02*
X1793Y1378D01*
X1809Y1378D02*
X1856Y1378D01*
X1445Y1377D02*
X1492Y1377D01*
X1510Y1377D02*
X1557Y1377D01*
X1745Y1377D02*
X1792Y1377D01*
X1810Y1377D02*
X1856Y1377D01*
X1445Y1376D02*
X1491Y1376D01*
X1511Y1376D02*
X1557Y1376D01*
X1745Y1376D02*
X1791Y1376D01*
X1811Y1376D02*
X1857Y1376D01*
X1445Y1375D02*
X1491Y1375D01*
X1511Y1375D02*
X1557Y1375D01*
X1745Y1375D02*
X1791Y1375D01*
X1811Y1375D02*
X1857Y1375D01*
X1445Y1374D02*
X1490Y1374D01*
X1512Y1374D02*
X1557Y1374D01*
X1745Y1374D02*
X1790Y1374D01*
X1812Y1374D02*
X1857Y1374D01*
X1445Y1373D02*
X1490Y1373D01*
X1512Y1373D02*
X1557Y1373D01*
X1745Y1373D02*
X1790Y1373D01*
X1812Y1373D02*
X1857Y1373D01*
X1445Y1372D02*
X1490Y1372D01*
X1512Y1372D02*
X1557Y1372D01*
X1745Y1372D02*
X1790Y1372D01*
X1812Y1372D02*
X1857Y1372D01*
X1445Y1371D02*
X1490Y1371D01*
X1512Y1371D02*
X1557Y1371D01*
X1744Y1371D02*
X1789Y1371D01*
X1812Y1371D02*
X1857Y1371D01*
X1445Y1370D02*
X1490Y1370D01*
X1512Y1370D02*
X1557Y1370D01*
X1744Y1370D02*
X1789Y1370D01*
X1812Y1370D02*
X1857Y1370D01*
X1445Y1369D02*
X1490Y1369D01*
X1512Y1369D02*
X1557Y1369D01*
X1744Y1369D02*
X1789Y1369D01*
X1812Y1369D02*
X1857Y1369D01*
X1445Y1368D02*
X1490Y1368D01*
X1512Y1368D02*
X1557Y1368D01*
X1745Y1368D02*
X1790Y1368D01*
X1812Y1368D02*
X1857Y1368D01*
X1445Y1367D02*
X1490Y1367D01*
X1512Y1367D02*
X1557Y1367D01*
X1745Y1367D02*
X1790Y1367D01*
X1812Y1367D02*
X1857Y1367D01*
X1445Y1366D02*
X1490Y1366D01*
X1512Y1366D02*
X1557Y1366D01*
X1745Y1366D02*
X1790Y1366D01*
X1812Y1366D02*
X1857Y1366D01*
X1445Y1365D02*
X1491Y1365D01*
X1511Y1365D02*
X1557Y1365D01*
X1745Y1365D02*
X1790Y1365D01*
X1811Y1365D02*
X1857Y1365D01*
X1445Y1364D02*
X1491Y1364D01*
X1511Y1364D02*
X1557Y1364D01*
X1745Y1364D02*
X1791Y1364D01*
X1811Y1364D02*
X1857Y1364D01*
X1445Y1363D02*
X1492Y1363D01*
X1510Y1363D02*
X1557Y1363D01*
X1745Y1363D02*
X1792Y1363D01*
X1810Y1363D02*
X1857Y1363D01*
X1446Y1362D02*
X1493Y1362D01*
X1509Y1362D02*
X1556Y1362D01*
X1746Y1362D02*
X1793Y1362D01*
X1809Y1362D02*
X1856Y1362D01*
X1446Y1361D02*
X1494Y1361D01*
X1508Y1361D02*
X1556Y1361D01*
X1746Y1361D02*
X1794Y1361D01*
X1808Y1361D02*
X1856Y1361D01*
X1446Y1360D02*
X1495Y1360D01*
X1506Y1360D02*
X1556Y1360D01*
X1746Y1360D02*
X1795Y1360D01*
X1806Y1360D02*
X1856Y1360D01*
X1447Y1359D02*
X1499Y1359D01*
X1503Y1359D02*
X1555Y1359D01*
X1746Y1359D02*
X1799Y1359D01*
X1803Y1359D02*
X1855Y1359D01*
X1447Y1358D02*
X1555Y1358D01*
X1747Y1358D02*
X1855Y1358D01*
X1447Y1357D02*
X1555Y1357D01*
X1747Y1357D02*
X1854Y1357D01*
X1448Y1356D02*
X1554Y1356D01*
X1748Y1356D02*
X1854Y1356D01*
X1448Y1355D02*
X1554Y1355D01*
X1748Y1355D02*
X1853Y1355D01*
X1449Y1354D02*
X1553Y1354D01*
X1749Y1354D02*
X1853Y1354D01*
X1450Y1353D02*
X1552Y1353D01*
X1749Y1353D02*
X1852Y1353D01*
X1450Y1352D02*
X1552Y1352D01*
X1750Y1352D02*
X1852Y1352D01*
X1451Y1351D02*
X1551Y1351D01*
X1751Y1351D02*
X1851Y1351D01*
X1452Y1350D02*
X1550Y1350D01*
X1752Y1350D02*
X1850Y1350D01*
X1453Y1349D02*
X1549Y1349D01*
X1753Y1349D02*
X1849Y1349D01*
X1454Y1348D02*
X1548Y1348D01*
X1753Y1348D02*
X1848Y1348D01*
X1455Y1347D02*
X1547Y1347D01*
X1755Y1347D02*
X1847Y1347D01*
X1456Y1346D02*
X1546Y1346D01*
X1756Y1346D02*
X1846Y1346D01*
X1457Y1345D02*
X1545Y1345D01*
X1757Y1345D02*
X1845Y1345D01*
X1459Y1344D02*
X1543Y1344D01*
X1758Y1344D02*
X1843Y1344D01*
X1460Y1343D02*
X1542Y1343D01*
X1760Y1343D02*
X1842Y1343D01*
X1462Y1342D02*
X1540Y1342D01*
X1762Y1342D02*
X1840Y1342D01*
X1464Y1341D02*
X1538Y1341D01*
X1764Y1341D02*
X1837Y1341D01*
X1467Y1340D02*
X1534Y1340D01*
X1767Y1340D02*
X1834Y1340D01*
X1473Y1339D02*
X1529Y1339D01*
X1773Y1339D02*
X1829Y1339D01*
X1469Y1300D02*
X1533Y1300D01*
X1769Y1300D02*
X1833Y1300D01*
X1465Y1299D02*
X1537Y1299D01*
X1765Y1299D02*
X1837Y1299D01*
X1463Y1298D02*
X1539Y1298D01*
X1763Y1298D02*
X1839Y1298D01*
X1461Y1297D02*
X1541Y1297D01*
X1761Y1297D02*
X1841Y1297D01*
X1459Y1296D02*
X1543Y1296D01*
X1759Y1296D02*
X1843Y1296D01*
X1457Y1295D02*
X1544Y1295D01*
X1757Y1295D02*
X1844Y1295D01*
X1456Y1294D02*
X1546Y1294D01*
X1756Y1294D02*
X1846Y1294D01*
X1455Y1293D02*
X1547Y1293D01*
X1755Y1293D02*
X1847Y1293D01*
X1454Y1292D02*
X1548Y1292D01*
X1754Y1292D02*
X1848Y1292D01*
X1453Y1291D02*
X1549Y1291D01*
X1753Y1291D02*
X1849Y1291D01*
X1452Y1290D02*
X1550Y1290D01*
X1752Y1290D02*
X1850Y1290D01*
X1451Y1289D02*
X1551Y1289D01*
X1751Y1289D02*
X1851Y1289D01*
X1450Y1288D02*
X1552Y1288D01*
X1750Y1288D02*
X1851Y1288D01*
X1450Y1287D02*
X1552Y1287D01*
X1750Y1287D02*
X1852Y1287D01*
X1449Y1286D02*
X1553Y1286D01*
X1749Y1286D02*
X1853Y1286D01*
X1449Y1285D02*
X1553Y1285D01*
X1748Y1285D02*
X1853Y1285D01*
X1448Y1284D02*
X1554Y1284D01*
X1748Y1284D02*
X1854Y1284D01*
X1448Y1283D02*
X1554Y1283D01*
X1747Y1283D02*
X1854Y1283D01*
X1447Y1282D02*
X1555Y1282D01*
X1747Y1282D02*
X1855Y1282D01*
X1447Y1281D02*
X1555Y1281D01*
X1747Y1281D02*
X1855Y1281D01*
X1446Y1280D02*
X1496Y1280D01*
X1506Y1280D02*
X1556Y1280D01*
X1746Y1280D02*
X1796Y1280D01*
X1806Y1280D02*
X1856Y1280D01*
X1446Y1279D02*
X1494Y1279D01*
X1508Y1279D02*
X1556Y1279D01*
X1746Y1279D02*
X1794Y1279D01*
X1808Y1279D02*
X1856Y1279D01*
X1446Y1278D02*
X1493Y1278D01*
X1509Y1278D02*
X1556Y1278D01*
X1746Y1278D02*
X1793Y1278D01*
X1809Y1278D02*
X1856Y1278D01*
X1445Y1277D02*
X1492Y1277D01*
X1510Y1277D02*
X1557Y1277D01*
X1745Y1277D02*
X1792Y1277D01*
X1810Y1277D02*
X1856Y1277D01*
X1445Y1276D02*
X1491Y1276D01*
X1511Y1276D02*
X1557Y1276D01*
X1745Y1276D02*
X1791Y1276D01*
X1811Y1276D02*
X1857Y1276D01*
X1445Y1275D02*
X1491Y1275D01*
X1511Y1275D02*
X1557Y1275D01*
X1745Y1275D02*
X1791Y1275D01*
X1811Y1275D02*
X1857Y1275D01*
X1445Y1274D02*
X1490Y1274D01*
X1512Y1274D02*
X1557Y1274D01*
X1745Y1274D02*
X1790Y1274D01*
X1812Y1274D02*
X1857Y1274D01*
X1445Y1273D02*
X1490Y1273D01*
X1512Y1273D02*
X1557Y1273D01*
X1745Y1273D02*
X1790Y1273D01*
X1812Y1273D02*
X1857Y1273D01*
X1445Y1272D02*
X1490Y1272D01*
X1512Y1272D02*
X1557Y1272D01*
X1745Y1272D02*
X1790Y1272D01*
X1812Y1272D02*
X1857Y1272D01*
X1445Y1271D02*
X1490Y1271D01*
X1512Y1271D02*
X1557Y1271D01*
X1744Y1271D02*
X1789Y1271D01*
X1812Y1271D02*
X1857Y1271D01*
X1445Y1270D02*
X1490Y1270D01*
X1512Y1270D02*
X1557Y1270D01*
X1744Y1270D02*
X1789Y1270D01*
X1812Y1270D02*
X1857Y1270D01*
X1445Y1269D02*
X1490Y1269D01*
X1512Y1269D02*
X1557Y1269D01*
X1744Y1269D02*
X1789Y1269D01*
X1812Y1269D02*
X1857Y1269D01*
X1445Y1268D02*
X1490Y1268D01*
X1512Y1268D02*
X1557Y1268D01*
X1745Y1268D02*
X1790Y1268D01*
X1812Y1268D02*
X1857Y1268D01*
X1445Y1267D02*
X1490Y1267D01*
X1512Y1267D02*
X1557Y1267D01*
X1745Y1267D02*
X1790Y1267D01*
X1812Y1267D02*
X1857Y1267D01*
X1445Y1266D02*
X1490Y1266D01*
X1512Y1266D02*
X1557Y1266D01*
X1745Y1266D02*
X1790Y1266D01*
X1812Y1266D02*
X1857Y1266D01*
X1445Y1265D02*
X1491Y1265D01*
X1511Y1265D02*
X1557Y1265D01*
X1745Y1265D02*
X1790Y1265D01*
X1811Y1265D02*
X1857Y1265D01*
X1445Y1264D02*
X1491Y1264D01*
X1511Y1264D02*
X1557Y1264D01*
X1745Y1264D02*
X1791Y1264D01*
X1811Y1264D02*
X1857Y1264D01*
X1445Y1263D02*
X1492Y1263D01*
X1510Y1263D02*
X1557Y1263D01*
X1745Y1263D02*
X1792Y1263D01*
X1810Y1263D02*
X1857Y1263D01*
X1446Y1262D02*
X1493Y1262D01*
X1509Y1262D02*
X1556Y1262D01*
X1746Y1262D02*
X1793Y1262D01*
X1809Y1262D02*
X1856Y1262D01*
X1446Y1261D02*
X1494Y1261D01*
X1508Y1261D02*
X1556Y1261D01*
X1746Y1261D02*
X1794Y1261D01*
X1808Y1261D02*
X1856Y1261D01*
X1446Y1260D02*
X1496Y1260D01*
X1506Y1260D02*
X1556Y1260D01*
X1746Y1260D02*
X1795Y1260D01*
X1806Y1260D02*
X1856Y1260D01*
X1447Y1259D02*
X1499Y1259D01*
X1503Y1259D02*
X1555Y1259D01*
X1746Y1259D02*
X1799Y1259D01*
X1803Y1259D02*
X1855Y1259D01*
X1447Y1258D02*
X1555Y1258D01*
X1747Y1258D02*
X1855Y1258D01*
X1447Y1257D02*
X1555Y1257D01*
X1747Y1257D02*
X1854Y1257D01*
X1448Y1256D02*
X1554Y1256D01*
X1748Y1256D02*
X1854Y1256D01*
X1448Y1255D02*
X1554Y1255D01*
X1748Y1255D02*
X1853Y1255D01*
X1449Y1254D02*
X1553Y1254D01*
X1749Y1254D02*
X1853Y1254D01*
X1450Y1253D02*
X1552Y1253D01*
X1749Y1253D02*
X1852Y1253D01*
X1450Y1252D02*
X1552Y1252D01*
X1750Y1252D02*
X1852Y1252D01*
X1451Y1251D02*
X1551Y1251D01*
X1751Y1251D02*
X1851Y1251D01*
X1452Y1250D02*
X1550Y1250D01*
X1752Y1250D02*
X1850Y1250D01*
X1453Y1249D02*
X1549Y1249D01*
X1753Y1249D02*
X1849Y1249D01*
X1454Y1248D02*
X1548Y1248D01*
X1753Y1248D02*
X1848Y1248D01*
X1455Y1247D02*
X1547Y1247D01*
X1755Y1247D02*
X1847Y1247D01*
X1456Y1246D02*
X1546Y1246D01*
X1756Y1246D02*
X1846Y1246D01*
X1457Y1245D02*
X1545Y1245D01*
X1757Y1245D02*
X1845Y1245D01*
X1459Y1244D02*
X1543Y1244D01*
X1758Y1244D02*
X1843Y1244D01*
X1460Y1243D02*
X1542Y1243D01*
X1760Y1243D02*
X1842Y1243D01*
X1462Y1242D02*
X1540Y1242D01*
X1762Y1242D02*
X1840Y1242D01*
X1465Y1241D02*
X1537Y1241D01*
X1764Y1241D02*
X1837Y1241D01*
X1468Y1240D02*
X1534Y1240D01*
X1767Y1240D02*
X1834Y1240D01*
X1473Y1239D02*
X1529Y1239D01*
X1773Y1239D02*
X1829Y1239D01*
X1469Y1200D02*
X1533Y1200D01*
X1768Y1200D02*
X1833Y1200D01*
X1465Y1199D02*
X1537Y1199D01*
X1765Y1199D02*
X1837Y1199D01*
X1463Y1198D02*
X1539Y1198D01*
X1763Y1198D02*
X1839Y1198D01*
X1461Y1197D02*
X1541Y1197D01*
X1761Y1197D02*
X1841Y1197D01*
X1459Y1196D02*
X1543Y1196D01*
X1759Y1196D02*
X1843Y1196D01*
X1457Y1195D02*
X1545Y1195D01*
X1757Y1195D02*
X1844Y1195D01*
X1456Y1194D02*
X1546Y1194D01*
X1756Y1194D02*
X1846Y1194D01*
X1455Y1193D02*
X1547Y1193D01*
X1755Y1193D02*
X1847Y1193D01*
X1454Y1192D02*
X1548Y1192D01*
X1754Y1192D02*
X1848Y1192D01*
X1453Y1191D02*
X1549Y1191D01*
X1753Y1191D02*
X1849Y1191D01*
X1452Y1190D02*
X1550Y1190D01*
X1752Y1190D02*
X1850Y1190D01*
X1451Y1189D02*
X1551Y1189D01*
X1751Y1189D02*
X1851Y1189D01*
X1450Y1188D02*
X1552Y1188D01*
X1750Y1188D02*
X1851Y1188D01*
X1450Y1187D02*
X1552Y1187D01*
X1750Y1187D02*
X1852Y1187D01*
X1449Y1186D02*
X1553Y1186D01*
X1749Y1186D02*
X1853Y1186D01*
X1449Y1185D02*
X1553Y1185D01*
X1748Y1185D02*
X1853Y1185D01*
X1448Y1184D02*
X1554Y1184D01*
X1748Y1184D02*
X1854Y1184D01*
X1448Y1183D02*
X1554Y1183D01*
X1747Y1183D02*
X1854Y1183D01*
X1447Y1182D02*
X1555Y1182D01*
X1747Y1182D02*
X1855Y1182D01*
X1447Y1181D02*
X1555Y1181D01*
X1747Y1181D02*
X1855Y1181D01*
X1446Y1180D02*
X1496Y1180D01*
X1506Y1180D02*
X1556Y1180D01*
X1746Y1180D02*
X1796Y1180D01*
X1806Y1180D02*
X1856Y1180D01*
X1446Y1179D02*
X1494Y1179D01*
X1508Y1179D02*
X1556Y1179D01*
X1746Y1179D02*
X1794Y1179D01*
X1808Y1179D02*
X1856Y1179D01*
X1446Y1178D02*
X1493Y1178D01*
X1509Y1178D02*
X1556Y1178D01*
X1746Y1178D02*
X1793Y1178D01*
X1809Y1178D02*
X1856Y1178D01*
X1445Y1177D02*
X1492Y1177D01*
X1510Y1177D02*
X1557Y1177D01*
X1745Y1177D02*
X1792Y1177D01*
X1810Y1177D02*
X1856Y1177D01*
X1445Y1176D02*
X1491Y1176D01*
X1511Y1176D02*
X1557Y1176D01*
X1745Y1176D02*
X1791Y1176D01*
X1811Y1176D02*
X1857Y1176D01*
X1445Y1175D02*
X1491Y1175D01*
X1511Y1175D02*
X1557Y1175D01*
X1745Y1175D02*
X1791Y1175D01*
X1811Y1175D02*
X1857Y1175D01*
X1445Y1174D02*
X1490Y1174D01*
X1512Y1174D02*
X1557Y1174D01*
X1745Y1174D02*
X1790Y1174D01*
X1812Y1174D02*
X1857Y1174D01*
X1445Y1173D02*
X1490Y1173D01*
X1512Y1173D02*
X1557Y1173D01*
X1745Y1173D02*
X1790Y1173D01*
X1812Y1173D02*
X1857Y1173D01*
X1445Y1172D02*
X1490Y1172D01*
X1512Y1172D02*
X1557Y1172D01*
X1745Y1172D02*
X1790Y1172D01*
X1812Y1172D02*
X1857Y1172D01*
X1445Y1171D02*
X1490Y1171D01*
X1512Y1171D02*
X1557Y1171D01*
X1744Y1171D02*
X1789Y1171D01*
X1812Y1171D02*
X1857Y1171D01*
X1445Y1170D02*
X1490Y1170D01*
X1512Y1170D02*
X1557Y1170D01*
X1744Y1170D02*
X1789Y1170D01*
X1812Y1170D02*
X1857Y1170D01*
X1445Y1169D02*
X1490Y1169D01*
X1512Y1169D02*
X1557Y1169D01*
X1744Y1169D02*
X1789Y1169D01*
X1812Y1169D02*
X1857Y1169D01*
X1445Y1168D02*
X1490Y1168D01*
X1512Y1168D02*
X1557Y1168D01*
X1745Y1168D02*
X1790Y1168D01*
X1812Y1168D02*
X1857Y1168D01*
X1445Y1167D02*
X1490Y1167D01*
X1512Y1167D02*
X1557Y1167D01*
X1745Y1167D02*
X1790Y1167D01*
X1812Y1167D02*
X1857Y1167D01*
X1445Y1166D02*
X1490Y1166D01*
X1512Y1166D02*
X1557Y1166D01*
X1745Y1166D02*
X1790Y1166D01*
X1812Y1166D02*
X1857Y1166D01*
X1445Y1165D02*
X1491Y1165D01*
X1511Y1165D02*
X1557Y1165D01*
X1745Y1165D02*
X1790Y1165D01*
X1811Y1165D02*
X1857Y1165D01*
X1445Y1164D02*
X1491Y1164D01*
X1511Y1164D02*
X1557Y1164D01*
X1745Y1164D02*
X1791Y1164D01*
X1811Y1164D02*
X1857Y1164D01*
X1445Y1163D02*
X1492Y1163D01*
X1510Y1163D02*
X1557Y1163D01*
X1745Y1163D02*
X1792Y1163D01*
X1810Y1163D02*
X1857Y1163D01*
X1446Y1162D02*
X1493Y1162D01*
X1509Y1162D02*
X1556Y1162D01*
X1746Y1162D02*
X1793Y1162D01*
X1809Y1162D02*
X1856Y1162D01*
X1446Y1161D02*
X1494Y1161D01*
X1508Y1161D02*
X1556Y1161D01*
X1746Y1161D02*
X1794Y1161D01*
X1808Y1161D02*
X1856Y1161D01*
X1446Y1160D02*
X1496Y1160D01*
X1506Y1160D02*
X1556Y1160D01*
X1746Y1160D02*
X1795Y1160D01*
X1806Y1160D02*
X1856Y1160D01*
X1447Y1159D02*
X1499Y1159D01*
X1503Y1159D02*
X1555Y1159D01*
X1747Y1159D02*
X1799Y1159D01*
X1803Y1159D02*
X1855Y1159D01*
X1447Y1158D02*
X1555Y1158D01*
X1747Y1158D02*
X1855Y1158D01*
X1447Y1157D02*
X1555Y1157D01*
X1747Y1157D02*
X1854Y1157D01*
X1448Y1156D02*
X1554Y1156D01*
X1748Y1156D02*
X1854Y1156D01*
X1448Y1155D02*
X1554Y1155D01*
X1748Y1155D02*
X1853Y1155D01*
X1449Y1154D02*
X1553Y1154D01*
X1749Y1154D02*
X1853Y1154D01*
X1450Y1153D02*
X1552Y1153D01*
X1749Y1153D02*
X1852Y1153D01*
X1450Y1152D02*
X1552Y1152D01*
X1750Y1152D02*
X1852Y1152D01*
X1451Y1151D02*
X1551Y1151D01*
X1751Y1151D02*
X1851Y1151D01*
X1452Y1150D02*
X1550Y1150D01*
X1752Y1150D02*
X1850Y1150D01*
X1453Y1149D02*
X1549Y1149D01*
X1753Y1149D02*
X1849Y1149D01*
X1454Y1148D02*
X1548Y1148D01*
X1753Y1148D02*
X1848Y1148D01*
X1455Y1147D02*
X1547Y1147D01*
X1755Y1147D02*
X1847Y1147D01*
X1456Y1146D02*
X1546Y1146D01*
X1756Y1146D02*
X1846Y1146D01*
X1457Y1145D02*
X1545Y1145D01*
X1757Y1145D02*
X1845Y1145D01*
X1459Y1144D02*
X1543Y1144D01*
X1758Y1144D02*
X1843Y1144D01*
X1460Y1143D02*
X1542Y1143D01*
X1760Y1143D02*
X1842Y1143D01*
X1462Y1142D02*
X1540Y1142D01*
X1762Y1142D02*
X1840Y1142D01*
X1465Y1141D02*
X1537Y1141D01*
X1765Y1141D02*
X1837Y1141D01*
X1468Y1140D02*
X1534Y1140D01*
X1768Y1140D02*
X1834Y1140D01*
X1474Y1139D02*
X1528Y1139D01*
X1773Y1139D02*
X1828Y1139D01*
X1468Y1000D02*
X1534Y1000D01*
X1768Y1000D02*
X1834Y1000D01*
X1465Y999D02*
X1537Y999D01*
X1765Y999D02*
X1837Y999D01*
X1463Y998D02*
X1539Y998D01*
X1763Y998D02*
X1839Y998D01*
X1461Y997D02*
X1541Y997D01*
X1760Y997D02*
X1841Y997D01*
X1459Y996D02*
X1543Y996D01*
X1759Y996D02*
X1843Y996D01*
X1457Y995D02*
X1545Y995D01*
X1757Y995D02*
X1844Y995D01*
X1456Y994D02*
X1546Y994D01*
X1756Y994D02*
X1846Y994D01*
X1455Y993D02*
X1547Y993D01*
X1755Y993D02*
X1847Y993D01*
X1454Y992D02*
X1548Y992D01*
X1754Y992D02*
X1848Y992D01*
X1453Y991D02*
X1549Y991D01*
X1753Y991D02*
X1849Y991D01*
X1452Y990D02*
X1550Y990D01*
X1752Y990D02*
X1850Y990D01*
X1451Y989D02*
X1551Y989D01*
X1751Y989D02*
X1851Y989D01*
X1450Y988D02*
X1552Y988D01*
X1750Y988D02*
X1851Y988D01*
X1450Y987D02*
X1552Y987D01*
X1750Y987D02*
X1852Y987D01*
X1449Y986D02*
X1553Y986D01*
X1749Y986D02*
X1853Y986D01*
X1449Y985D02*
X1553Y985D01*
X1748Y985D02*
X1853Y985D01*
X1448Y984D02*
X1554Y984D01*
X1748Y984D02*
X1854Y984D01*
X1448Y983D02*
X1554Y983D01*
X1747Y983D02*
X1854Y983D01*
X1447Y982D02*
X1555Y982D01*
X1747Y982D02*
X1855Y982D01*
X1447Y981D02*
X1555Y981D01*
X1747Y981D02*
X1855Y981D01*
X1446Y980D02*
X1496Y980D01*
X1506Y980D02*
X1556Y980D01*
X1746Y980D02*
X1796Y980D01*
X1806Y980D02*
X1856Y980D01*
X1446Y979D02*
X1494Y979D01*
X1508Y979D02*
X1556Y979D01*
X1746Y979D02*
X1794Y979D01*
X1808Y979D02*
X1856Y979D01*
X1446Y978D02*
X1493Y978D01*
X1509Y978D02*
X1556Y978D01*
X1746Y978D02*
X1793Y978D01*
X1809Y978D02*
X1856Y978D01*
X1445Y977D02*
X1492Y977D01*
X1510Y977D02*
X1557Y977D01*
X1745Y977D02*
X1792Y977D01*
X1810Y977D02*
X1856Y977D01*
X1445Y976D02*
X1491Y976D01*
X1511Y976D02*
X1557Y976D01*
X1745Y976D02*
X1791Y976D01*
X1811Y976D02*
X1857Y976D01*
X1445Y975D02*
X1491Y975D01*
X1511Y975D02*
X1557Y975D01*
X1745Y975D02*
X1791Y975D01*
X1811Y975D02*
X1857Y975D01*
X1445Y974D02*
X1490Y974D01*
X1512Y974D02*
X1557Y974D01*
X1745Y974D02*
X1790Y974D01*
X1812Y974D02*
X1857Y974D01*
X1445Y973D02*
X1490Y973D01*
X1512Y973D02*
X1557Y973D01*
X1745Y973D02*
X1790Y973D01*
X1812Y973D02*
X1857Y973D01*
X1445Y972D02*
X1490Y972D01*
X1512Y972D02*
X1557Y972D01*
X1745Y972D02*
X1790Y972D01*
X1812Y972D02*
X1857Y972D01*
X1445Y971D02*
X1490Y971D01*
X1512Y971D02*
X1557Y971D01*
X1744Y971D02*
X1789Y971D01*
X1812Y971D02*
X1857Y971D01*
X1445Y970D02*
X1490Y970D01*
X1512Y970D02*
X1557Y970D01*
X1744Y970D02*
X1789Y970D01*
X1812Y970D02*
X1857Y970D01*
X1445Y969D02*
X1490Y969D01*
X1512Y969D02*
X1557Y969D01*
X1744Y969D02*
X1789Y969D01*
X1812Y969D02*
X1857Y969D01*
X1445Y968D02*
X1490Y968D01*
X1512Y968D02*
X1557Y968D01*
X1745Y968D02*
X1790Y968D01*
X1812Y968D02*
X1857Y968D01*
X1445Y967D02*
X1490Y967D01*
X1512Y967D02*
X1557Y967D01*
X1745Y967D02*
X1790Y967D01*
X1812Y967D02*
X1857Y967D01*
X1445Y966D02*
X1490Y966D01*
X1512Y966D02*
X1557Y966D01*
X1745Y966D02*
X1790Y966D01*
X1812Y966D02*
X1857Y966D01*
X1445Y965D02*
X1491Y965D01*
X1511Y965D02*
X1557Y965D01*
X1745Y965D02*
X1791Y965D01*
X1811Y965D02*
X1857Y965D01*
X1445Y964D02*
X1491Y964D01*
X1511Y964D02*
X1557Y964D01*
X1745Y964D02*
X1791Y964D01*
X1811Y964D02*
X1857Y964D01*
X1445Y963D02*
X1492Y963D01*
X1510Y963D02*
X1557Y963D01*
X1745Y963D02*
X1792Y963D01*
X1810Y963D02*
X1856Y963D01*
X1446Y962D02*
X1493Y962D01*
X1509Y962D02*
X1556Y962D01*
X1746Y962D02*
X1793Y962D01*
X1809Y962D02*
X1856Y962D01*
X1446Y961D02*
X1494Y961D01*
X1508Y961D02*
X1556Y961D01*
X1746Y961D02*
X1794Y961D01*
X1808Y961D02*
X1856Y961D01*
X1446Y960D02*
X1496Y960D01*
X1506Y960D02*
X1556Y960D01*
X1746Y960D02*
X1796Y960D01*
X1806Y960D02*
X1856Y960D01*
X1447Y959D02*
X1500Y959D01*
X1502Y959D02*
X1555Y959D01*
X1747Y959D02*
X1800Y959D01*
X1802Y959D02*
X1855Y959D01*
X1447Y958D02*
X1555Y958D01*
X1747Y958D02*
X1855Y958D01*
X1447Y957D02*
X1555Y957D01*
X1747Y957D02*
X1854Y957D01*
X1448Y956D02*
X1554Y956D01*
X1748Y956D02*
X1854Y956D01*
X1448Y955D02*
X1554Y955D01*
X1748Y955D02*
X1853Y955D01*
X1449Y954D02*
X1553Y954D01*
X1749Y954D02*
X1853Y954D01*
X1450Y953D02*
X1552Y953D01*
X1750Y953D02*
X1852Y953D01*
X1450Y952D02*
X1552Y952D01*
X1750Y952D02*
X1852Y952D01*
X1451Y951D02*
X1551Y951D01*
X1751Y951D02*
X1851Y951D01*
X1452Y950D02*
X1550Y950D01*
X1752Y950D02*
X1850Y950D01*
X1453Y949D02*
X1549Y949D01*
X1753Y949D02*
X1849Y949D01*
X1454Y948D02*
X1548Y948D01*
X1754Y948D02*
X1848Y948D01*
X1455Y947D02*
X1547Y947D01*
X1755Y947D02*
X1847Y947D01*
X1456Y946D02*
X1546Y946D01*
X1756Y946D02*
X1846Y946D01*
X1457Y945D02*
X1545Y945D01*
X1757Y945D02*
X1845Y945D01*
X1459Y944D02*
X1543Y944D01*
X1759Y944D02*
X1843Y944D01*
X1460Y943D02*
X1542Y943D01*
X1760Y943D02*
X1842Y943D01*
X1462Y942D02*
X1540Y942D01*
X1762Y942D02*
X1840Y942D01*
X1465Y941D02*
X1537Y941D01*
X1765Y941D02*
X1837Y941D01*
X1468Y940D02*
X1534Y940D01*
X1768Y940D02*
X1834Y940D01*
X1475Y939D02*
X1527Y939D01*
X1774Y939D02*
X1827Y939D01*
X1468Y900D02*
X1534Y900D01*
X1768Y900D02*
X1834Y900D01*
X1465Y899D02*
X1537Y899D01*
X1765Y899D02*
X1837Y899D01*
X1463Y898D02*
X1539Y898D01*
X1762Y898D02*
X1839Y898D01*
X1461Y897D02*
X1541Y897D01*
X1760Y897D02*
X1841Y897D01*
X1459Y896D02*
X1543Y896D01*
X1759Y896D02*
X1843Y896D01*
X1457Y895D02*
X1545Y895D01*
X1757Y895D02*
X1845Y895D01*
X1456Y894D02*
X1546Y894D01*
X1756Y894D02*
X1846Y894D01*
X1455Y893D02*
X1547Y893D01*
X1755Y893D02*
X1847Y893D01*
X1454Y892D02*
X1548Y892D01*
X1754Y892D02*
X1848Y892D01*
X1453Y891D02*
X1549Y891D01*
X1753Y891D02*
X1849Y891D01*
X1452Y890D02*
X1550Y890D01*
X1752Y890D02*
X1850Y890D01*
X1451Y889D02*
X1551Y889D01*
X1751Y889D02*
X1851Y889D01*
X1450Y888D02*
X1552Y888D01*
X1750Y888D02*
X1851Y888D01*
X1450Y887D02*
X1552Y887D01*
X1750Y887D02*
X1852Y887D01*
X1449Y886D02*
X1553Y886D01*
X1749Y886D02*
X1853Y886D01*
X1448Y885D02*
X1553Y885D01*
X1748Y885D02*
X1853Y885D01*
X1448Y884D02*
X1554Y884D01*
X1748Y884D02*
X1854Y884D01*
X1448Y883D02*
X1554Y883D01*
X1747Y883D02*
X1854Y883D01*
X1447Y882D02*
X1555Y882D01*
X1747Y882D02*
X1855Y882D01*
X1447Y881D02*
X1555Y881D01*
X1747Y881D02*
X1855Y881D01*
X1446Y880D02*
X1496Y880D01*
X1506Y880D02*
X1556Y880D01*
X1746Y880D02*
X1796Y880D01*
X1806Y880D02*
X1856Y880D01*
X1446Y879D02*
X1494Y879D01*
X1508Y879D02*
X1556Y879D01*
X1746Y879D02*
X1794Y879D01*
X1808Y879D02*
X1856Y879D01*
X1446Y878D02*
X1493Y878D01*
X1509Y878D02*
X1556Y878D01*
X1746Y878D02*
X1793Y878D01*
X1809Y878D02*
X1856Y878D01*
X1445Y877D02*
X1492Y877D01*
X1510Y877D02*
X1557Y877D01*
X1745Y877D02*
X1792Y877D01*
X1810Y877D02*
X1856Y877D01*
X1445Y876D02*
X1491Y876D01*
X1511Y876D02*
X1557Y876D01*
X1745Y876D02*
X1791Y876D01*
X1811Y876D02*
X1857Y876D01*
X1445Y875D02*
X1491Y875D01*
X1511Y875D02*
X1557Y875D01*
X1745Y875D02*
X1791Y875D01*
X1811Y875D02*
X1857Y875D01*
X1445Y874D02*
X1490Y874D01*
X1512Y874D02*
X1557Y874D01*
X1745Y874D02*
X1790Y874D01*
X1812Y874D02*
X1857Y874D01*
X1445Y873D02*
X1490Y873D01*
X1512Y873D02*
X1557Y873D01*
X1745Y873D02*
X1790Y873D01*
X1812Y873D02*
X1857Y873D01*
X1445Y872D02*
X1490Y872D01*
X1512Y872D02*
X1557Y872D01*
X1745Y872D02*
X1790Y872D01*
X1812Y872D02*
X1857Y872D01*
X1445Y871D02*
X1490Y871D01*
X1512Y871D02*
X1557Y871D01*
X1744Y871D02*
X1789Y871D01*
X1812Y871D02*
X1857Y871D01*
X1445Y870D02*
X1490Y870D01*
X1512Y870D02*
X1557Y870D01*
X1744Y870D02*
X1789Y870D01*
X1812Y870D02*
X1857Y870D01*
X1445Y869D02*
X1490Y869D01*
X1512Y869D02*
X1557Y869D01*
X1744Y869D02*
X1789Y869D01*
X1812Y869D02*
X1857Y869D01*
X1445Y868D02*
X1490Y868D01*
X1512Y868D02*
X1557Y868D01*
X1745Y868D02*
X1790Y868D01*
X1812Y868D02*
X1857Y868D01*
X1445Y867D02*
X1490Y867D01*
X1512Y867D02*
X1557Y867D01*
X1745Y867D02*
X1790Y867D01*
X1812Y867D02*
X1857Y867D01*
X1445Y866D02*
X1490Y866D01*
X1512Y866D02*
X1557Y866D01*
X1745Y866D02*
X1790Y866D01*
X1812Y866D02*
X1857Y866D01*
X1445Y865D02*
X1491Y865D01*
X1511Y865D02*
X1557Y865D01*
X1745Y865D02*
X1791Y865D01*
X1811Y865D02*
X1857Y865D01*
X1445Y864D02*
X1491Y864D01*
X1511Y864D02*
X1557Y864D01*
X1745Y864D02*
X1791Y864D01*
X1811Y864D02*
X1857Y864D01*
X1445Y863D02*
X1492Y863D01*
X1510Y863D02*
X1557Y863D01*
X1745Y863D02*
X1792Y863D01*
X1810Y863D02*
X1856Y863D01*
X1446Y862D02*
X1493Y862D01*
X1509Y862D02*
X1556Y862D01*
X1746Y862D02*
X1793Y862D01*
X1809Y862D02*
X1856Y862D01*
X1446Y861D02*
X1494Y861D01*
X1508Y861D02*
X1556Y861D01*
X1746Y861D02*
X1794Y861D01*
X1808Y861D02*
X1856Y861D01*
X1446Y860D02*
X1496Y860D01*
X1506Y860D02*
X1556Y860D01*
X1746Y860D02*
X1796Y860D01*
X1806Y860D02*
X1856Y860D01*
X1447Y859D02*
X1500Y859D01*
X1502Y859D02*
X1555Y859D01*
X1747Y859D02*
X1800Y859D01*
X1802Y859D02*
X1855Y859D01*
X1447Y858D02*
X1555Y858D01*
X1747Y858D02*
X1855Y858D01*
X1447Y857D02*
X1554Y857D01*
X1747Y857D02*
X1854Y857D01*
X1448Y856D02*
X1554Y856D01*
X1748Y856D02*
X1854Y856D01*
X1448Y855D02*
X1554Y855D01*
X1748Y855D02*
X1853Y855D01*
X1449Y854D02*
X1553Y854D01*
X1749Y854D02*
X1853Y854D01*
X1450Y853D02*
X1552Y853D01*
X1750Y853D02*
X1852Y853D01*
X1450Y852D02*
X1552Y852D01*
X1750Y852D02*
X1852Y852D01*
X1451Y851D02*
X1551Y851D01*
X1751Y851D02*
X1851Y851D01*
X1452Y850D02*
X1550Y850D01*
X1752Y850D02*
X1850Y850D01*
X1453Y849D02*
X1549Y849D01*
X1753Y849D02*
X1849Y849D01*
X1454Y848D02*
X1548Y848D01*
X1754Y848D02*
X1848Y848D01*
X1455Y847D02*
X1547Y847D01*
X1755Y847D02*
X1847Y847D01*
X1456Y846D02*
X1546Y846D01*
X1756Y846D02*
X1846Y846D01*
X1457Y845D02*
X1545Y845D01*
X1757Y845D02*
X1845Y845D01*
X1459Y844D02*
X1543Y844D01*
X1759Y844D02*
X1843Y844D01*
X1460Y843D02*
X1542Y843D01*
X1760Y843D02*
X1841Y843D01*
X1462Y842D02*
X1540Y842D01*
X1762Y842D02*
X1839Y842D01*
X1465Y841D02*
X1537Y841D01*
X1765Y841D02*
X1837Y841D01*
X1468Y840D02*
X1534Y840D01*
X1768Y840D02*
X1834Y840D01*
X1475Y839D02*
X1527Y839D01*
X1775Y839D02*
X1827Y839D01*
X1468Y800D02*
X1534Y800D01*
X1768Y800D02*
X1834Y800D01*
X1465Y799D02*
X1537Y799D01*
X1765Y799D02*
X1837Y799D01*
X1462Y798D02*
X1539Y798D01*
X1762Y798D02*
X1839Y798D01*
X1460Y797D02*
X1541Y797D01*
X1760Y797D02*
X1841Y797D01*
X1459Y796D02*
X1543Y796D01*
X1759Y796D02*
X1843Y796D01*
X1457Y795D02*
X1545Y795D01*
X1757Y795D02*
X1845Y795D01*
X1456Y794D02*
X1546Y794D01*
X1756Y794D02*
X1846Y794D01*
X1455Y793D02*
X1547Y793D01*
X1755Y793D02*
X1847Y793D01*
X1454Y792D02*
X1548Y792D01*
X1754Y792D02*
X1848Y792D01*
X1453Y791D02*
X1549Y791D01*
X1753Y791D02*
X1849Y791D01*
X1452Y790D02*
X1550Y790D01*
X1752Y790D02*
X1850Y790D01*
X1451Y789D02*
X1551Y789D01*
X1751Y789D02*
X1851Y789D01*
X1450Y788D02*
X1552Y788D01*
X1750Y788D02*
X1852Y788D01*
X1450Y787D02*
X1552Y787D01*
X1750Y787D02*
X1852Y787D01*
X1449Y786D02*
X1553Y786D01*
X1749Y786D02*
X1853Y786D01*
X1448Y785D02*
X1553Y785D01*
X1748Y785D02*
X1853Y785D01*
X1448Y784D02*
X1554Y784D01*
X1748Y784D02*
X1854Y784D01*
X1447Y783D02*
X1554Y783D01*
X1747Y783D02*
X1854Y783D01*
X1447Y782D02*
X1555Y782D01*
X1747Y782D02*
X1855Y782D01*
X1447Y781D02*
X1555Y781D01*
X1747Y781D02*
X1855Y781D01*
X1446Y780D02*
X1496Y780D01*
X1506Y780D02*
X1556Y780D01*
X1746Y780D02*
X1796Y780D01*
X1806Y780D02*
X1856Y780D01*
X1446Y779D02*
X1494Y779D01*
X1508Y779D02*
X1556Y779D01*
X1746Y779D02*
X1794Y779D01*
X1808Y779D02*
X1856Y779D01*
X1446Y778D02*
X1493Y778D01*
X1509Y778D02*
X1556Y778D01*
X1746Y778D02*
X1793Y778D01*
X1809Y778D02*
X1856Y778D01*
X1445Y777D02*
X1492Y777D01*
X1510Y777D02*
X1557Y777D01*
X1745Y777D02*
X1792Y777D01*
X1810Y777D02*
X1856Y777D01*
X1445Y776D02*
X1491Y776D01*
X1511Y776D02*
X1557Y776D01*
X1745Y776D02*
X1791Y776D01*
X1811Y776D02*
X1857Y776D01*
X1445Y775D02*
X1491Y775D01*
X1511Y775D02*
X1557Y775D01*
X1745Y775D02*
X1791Y775D01*
X1811Y775D02*
X1857Y775D01*
X1445Y774D02*
X1490Y774D01*
X1512Y774D02*
X1557Y774D01*
X1745Y774D02*
X1790Y774D01*
X1812Y774D02*
X1857Y774D01*
X1445Y773D02*
X1490Y773D01*
X1512Y773D02*
X1557Y773D01*
X1745Y773D02*
X1790Y773D01*
X1812Y773D02*
X1857Y773D01*
X1445Y772D02*
X1490Y772D01*
X1512Y772D02*
X1557Y772D01*
X1745Y772D02*
X1790Y772D01*
X1812Y772D02*
X1857Y772D01*
X1445Y771D02*
X1490Y771D01*
X1512Y771D02*
X1557Y771D01*
X1744Y771D02*
X1789Y771D01*
X1812Y771D02*
X1857Y771D01*
X1445Y770D02*
X1490Y770D01*
X1512Y770D02*
X1557Y770D01*
X1744Y770D02*
X1789Y770D01*
X1812Y770D02*
X1857Y770D01*
X1445Y769D02*
X1490Y769D01*
X1512Y769D02*
X1557Y769D01*
X1744Y769D02*
X1789Y769D01*
X1812Y769D02*
X1857Y769D01*
X1445Y768D02*
X1490Y768D01*
X1512Y768D02*
X1557Y768D01*
X1745Y768D02*
X1790Y768D01*
X1812Y768D02*
X1857Y768D01*
X1445Y767D02*
X1490Y767D01*
X1512Y767D02*
X1557Y767D01*
X1745Y767D02*
X1790Y767D01*
X1812Y767D02*
X1857Y767D01*
X1445Y766D02*
X1490Y766D01*
X1512Y766D02*
X1557Y766D01*
X1745Y766D02*
X1790Y766D01*
X1812Y766D02*
X1857Y766D01*
X1445Y765D02*
X1491Y765D01*
X1511Y765D02*
X1557Y765D01*
X1745Y765D02*
X1791Y765D01*
X1811Y765D02*
X1857Y765D01*
X1445Y764D02*
X1491Y764D01*
X1511Y764D02*
X1557Y764D01*
X1745Y764D02*
X1791Y764D01*
X1811Y764D02*
X1857Y764D01*
X1445Y763D02*
X1492Y763D01*
X1510Y763D02*
X1557Y763D01*
X1745Y763D02*
X1792Y763D01*
X1810Y763D02*
X1856Y763D01*
X1446Y762D02*
X1493Y762D01*
X1509Y762D02*
X1556Y762D01*
X1746Y762D02*
X1793Y762D01*
X1809Y762D02*
X1856Y762D01*
X1446Y761D02*
X1494Y761D01*
X1508Y761D02*
X1556Y761D01*
X1746Y761D02*
X1794Y761D01*
X1808Y761D02*
X1856Y761D01*
X1446Y760D02*
X1496Y760D01*
X1506Y760D02*
X1556Y760D01*
X1746Y760D02*
X1796Y760D01*
X1806Y760D02*
X1856Y760D01*
X1447Y759D02*
X1555Y759D01*
X1747Y759D02*
X1855Y759D01*
X1447Y758D02*
X1555Y758D01*
X1747Y758D02*
X1855Y758D01*
X1447Y757D02*
X1554Y757D01*
X1747Y757D02*
X1854Y757D01*
X1448Y756D02*
X1554Y756D01*
X1748Y756D02*
X1854Y756D01*
X1448Y755D02*
X1553Y755D01*
X1748Y755D02*
X1853Y755D01*
X1449Y754D02*
X1553Y754D01*
X1749Y754D02*
X1853Y754D01*
X1450Y753D02*
X1552Y753D01*
X1750Y753D02*
X1852Y753D01*
X1450Y752D02*
X1552Y752D01*
X1750Y752D02*
X1852Y752D01*
X1451Y751D02*
X1551Y751D01*
X1751Y751D02*
X1851Y751D01*
X1452Y750D02*
X1550Y750D01*
X1752Y750D02*
X1850Y750D01*
X1453Y749D02*
X1549Y749D01*
X1753Y749D02*
X1849Y749D01*
X1454Y748D02*
X1548Y748D01*
X1754Y748D02*
X1848Y748D01*
X1455Y747D02*
X1547Y747D01*
X1755Y747D02*
X1847Y747D01*
X1456Y746D02*
X1546Y746D01*
X1756Y746D02*
X1846Y746D01*
X1457Y745D02*
X1545Y745D01*
X1757Y745D02*
X1845Y745D01*
X1459Y744D02*
X1543Y744D01*
X1759Y744D02*
X1843Y744D01*
X1460Y743D02*
X1542Y743D01*
X1760Y743D02*
X1841Y743D01*
X1462Y742D02*
X1539Y742D01*
X1762Y742D02*
X1839Y742D01*
X1465Y741D02*
X1537Y741D01*
X1765Y741D02*
X1837Y741D01*
X1468Y740D02*
X1534Y740D01*
X1768Y740D02*
X1834Y740D01*
X1476Y739D02*
X1526Y739D01*
X1776Y739D02*
X1826Y739D01*
X1476Y701D02*
X1526Y701D01*
X1775Y701D02*
X1826Y701D01*
X1468Y700D02*
X1534Y700D01*
X1768Y700D02*
X1834Y700D01*
X1465Y699D02*
X1537Y699D01*
X1765Y699D02*
X1837Y699D01*
X1462Y698D02*
X1540Y698D01*
X1762Y698D02*
X1839Y698D01*
X1460Y697D02*
X1542Y697D01*
X1760Y697D02*
X1841Y697D01*
X1459Y696D02*
X1543Y696D01*
X1759Y696D02*
X1843Y696D01*
X1457Y695D02*
X1545Y695D01*
X1757Y695D02*
X1845Y695D01*
X1456Y694D02*
X1546Y694D01*
X1756Y694D02*
X1846Y694D01*
X1455Y693D02*
X1547Y693D01*
X1755Y693D02*
X1847Y693D01*
X1454Y692D02*
X1548Y692D01*
X1754Y692D02*
X1848Y692D01*
X1453Y691D02*
X1549Y691D01*
X1753Y691D02*
X1849Y691D01*
X1452Y690D02*
X1550Y690D01*
X1752Y690D02*
X1850Y690D01*
X1451Y689D02*
X1551Y689D01*
X1751Y689D02*
X1851Y689D01*
X1450Y688D02*
X1552Y688D01*
X1750Y688D02*
X1852Y688D01*
X1450Y687D02*
X1552Y687D01*
X1750Y687D02*
X1852Y687D01*
X1449Y686D02*
X1553Y686D01*
X1749Y686D02*
X1853Y686D01*
X1448Y685D02*
X1553Y685D01*
X1748Y685D02*
X1853Y685D01*
X1448Y684D02*
X1554Y684D01*
X1748Y684D02*
X1854Y684D01*
X1447Y683D02*
X1554Y683D01*
X1747Y683D02*
X1854Y683D01*
X1447Y682D02*
X1555Y682D01*
X1747Y682D02*
X1855Y682D01*
X1447Y681D02*
X1555Y681D01*
X1747Y681D02*
X1855Y681D01*
X1446Y680D02*
X1496Y680D01*
X1506Y680D02*
X1556Y680D01*
X1746Y680D02*
X1796Y680D01*
X1806Y680D02*
X1856Y680D01*
X1446Y679D02*
X1494Y679D01*
X1508Y679D02*
X1556Y679D01*
X1746Y679D02*
X1794Y679D01*
X1808Y679D02*
X1856Y679D01*
X1446Y678D02*
X1493Y678D01*
X1509Y678D02*
X1556Y678D01*
X1746Y678D02*
X1793Y678D01*
X1809Y678D02*
X1856Y678D01*
X1445Y677D02*
X1492Y677D01*
X1510Y677D02*
X1557Y677D01*
X1745Y677D02*
X1792Y677D01*
X1810Y677D02*
X1856Y677D01*
X1445Y676D02*
X1491Y676D01*
X1511Y676D02*
X1557Y676D01*
X1745Y676D02*
X1791Y676D01*
X1811Y676D02*
X1857Y676D01*
X1445Y675D02*
X1491Y675D01*
X1511Y675D02*
X1557Y675D01*
X1745Y675D02*
X1791Y675D01*
X1811Y675D02*
X1857Y675D01*
X1445Y674D02*
X1490Y674D01*
X1512Y674D02*
X1557Y674D01*
X1745Y674D02*
X1790Y674D01*
X1812Y674D02*
X1857Y674D01*
X1445Y673D02*
X1490Y673D01*
X1512Y673D02*
X1557Y673D01*
X1745Y673D02*
X1790Y673D01*
X1812Y673D02*
X1857Y673D01*
X1445Y672D02*
X1490Y672D01*
X1512Y672D02*
X1557Y672D01*
X1745Y672D02*
X1790Y672D01*
X1812Y672D02*
X1857Y672D01*
X1445Y671D02*
X1490Y671D01*
X1512Y671D02*
X1557Y671D01*
X1744Y671D02*
X1789Y671D01*
X1812Y671D02*
X1857Y671D01*
X1445Y670D02*
X1490Y670D01*
X1512Y670D02*
X1557Y670D01*
X1744Y670D02*
X1789Y670D01*
X1812Y670D02*
X1857Y670D01*
X1445Y669D02*
X1490Y669D01*
X1512Y669D02*
X1557Y669D01*
X1744Y669D02*
X1789Y669D01*
X1812Y669D02*
X1857Y669D01*
X1445Y668D02*
X1490Y668D01*
X1512Y668D02*
X1557Y668D01*
X1745Y668D02*
X1790Y668D01*
X1812Y668D02*
X1857Y668D01*
X1445Y667D02*
X1490Y667D01*
X1512Y667D02*
X1557Y667D01*
X1745Y667D02*
X1790Y667D01*
X1812Y667D02*
X1857Y667D01*
X1445Y666D02*
X1490Y666D01*
X1512Y666D02*
X1557Y666D01*
X1745Y666D02*
X1790Y666D01*
X1812Y666D02*
X1857Y666D01*
X1445Y665D02*
X1491Y665D01*
X1511Y665D02*
X1557Y665D01*
X1745Y665D02*
X1791Y665D01*
X1811Y665D02*
X1857Y665D01*
X1445Y664D02*
X1491Y664D01*
X1511Y664D02*
X1557Y664D01*
X1745Y664D02*
X1791Y664D01*
X1811Y664D02*
X1857Y664D01*
X1445Y663D02*
X1492Y663D01*
X1510Y663D02*
X1557Y663D01*
X1745Y663D02*
X1792Y663D01*
X1810Y663D02*
X1856Y663D01*
X1446Y662D02*
X1493Y662D01*
X1509Y662D02*
X1556Y662D01*
X1746Y662D02*
X1793Y662D01*
X1809Y662D02*
X1856Y662D01*
X1446Y661D02*
X1494Y661D01*
X1508Y661D02*
X1556Y661D01*
X1746Y661D02*
X1794Y661D01*
X1808Y661D02*
X1856Y661D01*
X1446Y660D02*
X1496Y660D01*
X1506Y660D02*
X1556Y660D01*
X1746Y660D02*
X1796Y660D01*
X1806Y660D02*
X1856Y660D01*
X1447Y659D02*
X1555Y659D01*
X1747Y659D02*
X1855Y659D01*
X1447Y658D02*
X1555Y658D01*
X1747Y658D02*
X1855Y658D01*
X1447Y657D02*
X1554Y657D01*
X1747Y657D02*
X1854Y657D01*
X1448Y656D02*
X1554Y656D01*
X1748Y656D02*
X1854Y656D01*
X1448Y655D02*
X1553Y655D01*
X1748Y655D02*
X1853Y655D01*
X1449Y654D02*
X1553Y654D01*
X1749Y654D02*
X1853Y654D01*
X1450Y653D02*
X1552Y653D01*
X1750Y653D02*
X1852Y653D01*
X1450Y652D02*
X1552Y652D01*
X1750Y652D02*
X1852Y652D01*
X1451Y651D02*
X1551Y651D01*
X1751Y651D02*
X1851Y651D01*
X1452Y650D02*
X1550Y650D01*
X1752Y650D02*
X1850Y650D01*
X1453Y649D02*
X1549Y649D01*
X1753Y649D02*
X1849Y649D01*
X1454Y648D02*
X1548Y648D01*
X1754Y648D02*
X1848Y648D01*
X1455Y647D02*
X1547Y647D01*
X1755Y647D02*
X1847Y647D01*
X1456Y646D02*
X1546Y646D01*
X1756Y646D02*
X1846Y646D01*
X1457Y645D02*
X1545Y645D01*
X1757Y645D02*
X1845Y645D01*
X1459Y644D02*
X1543Y644D01*
X1759Y644D02*
X1843Y644D01*
X1460Y643D02*
X1541Y643D01*
X1760Y643D02*
X1841Y643D01*
X1463Y642D02*
X1539Y642D01*
X1762Y642D02*
X1839Y642D01*
X1465Y641D02*
X1537Y641D01*
X1765Y641D02*
X1837Y641D01*
X1468Y640D02*
X1534Y640D01*
X1768Y640D02*
X1834Y640D01*
X1475Y601D02*
X1527Y601D01*
X1775Y601D02*
X1827Y601D01*
X1468Y600D02*
X1534Y600D01*
X1768Y600D02*
X1834Y600D01*
X1465Y599D02*
X1537Y599D01*
X1765Y599D02*
X1837Y599D01*
X1462Y598D02*
X1540Y598D01*
X1762Y598D02*
X1839Y598D01*
X1460Y597D02*
X1542Y597D01*
X1760Y597D02*
X1841Y597D01*
X1459Y596D02*
X1543Y596D01*
X1759Y596D02*
X1843Y596D01*
X1457Y595D02*
X1545Y595D01*
X1757Y595D02*
X1845Y595D01*
X1456Y594D02*
X1546Y594D01*
X1756Y594D02*
X1846Y594D01*
X1455Y593D02*
X1547Y593D01*
X1755Y593D02*
X1847Y593D01*
X1454Y592D02*
X1548Y592D01*
X1754Y592D02*
X1848Y592D01*
X1453Y591D02*
X1549Y591D01*
X1753Y591D02*
X1849Y591D01*
X1452Y590D02*
X1550Y590D01*
X1752Y590D02*
X1850Y590D01*
X1451Y589D02*
X1551Y589D01*
X1751Y589D02*
X1851Y589D01*
X1450Y588D02*
X1552Y588D01*
X1750Y588D02*
X1852Y588D01*
X1450Y587D02*
X1552Y587D01*
X1750Y587D02*
X1852Y587D01*
X1449Y586D02*
X1553Y586D01*
X1749Y586D02*
X1853Y586D01*
X1448Y585D02*
X1554Y585D01*
X1748Y585D02*
X1853Y585D01*
X1448Y584D02*
X1554Y584D01*
X1748Y584D02*
X1854Y584D01*
X1447Y583D02*
X1554Y583D01*
X1747Y583D02*
X1854Y583D01*
X1447Y582D02*
X1555Y582D01*
X1747Y582D02*
X1855Y582D01*
X1447Y581D02*
X1500Y581D01*
X1502Y581D02*
X1555Y581D01*
X1747Y581D02*
X1800Y581D01*
X1802Y581D02*
X1855Y581D01*
X1446Y580D02*
X1496Y580D01*
X1506Y580D02*
X1556Y580D01*
X1746Y580D02*
X1796Y580D01*
X1806Y580D02*
X1856Y580D01*
X1446Y579D02*
X1494Y579D01*
X1508Y579D02*
X1556Y579D01*
X1746Y579D02*
X1794Y579D01*
X1808Y579D02*
X1856Y579D01*
X1446Y578D02*
X1493Y578D01*
X1509Y578D02*
X1556Y578D01*
X1746Y578D02*
X1793Y578D01*
X1809Y578D02*
X1856Y578D01*
X1445Y577D02*
X1492Y577D01*
X1510Y577D02*
X1557Y577D01*
X1745Y577D02*
X1792Y577D01*
X1810Y577D02*
X1856Y577D01*
X1445Y576D02*
X1491Y576D01*
X1511Y576D02*
X1557Y576D01*
X1745Y576D02*
X1791Y576D01*
X1811Y576D02*
X1857Y576D01*
X1445Y575D02*
X1491Y575D01*
X1511Y575D02*
X1557Y575D01*
X1745Y575D02*
X1791Y575D01*
X1811Y575D02*
X1857Y575D01*
X1445Y574D02*
X1490Y574D01*
X1512Y574D02*
X1557Y574D01*
X1745Y574D02*
X1790Y574D01*
X1812Y574D02*
X1857Y574D01*
X1445Y573D02*
X1490Y573D01*
X1512Y573D02*
X1557Y573D01*
X1745Y573D02*
X1790Y573D01*
X1812Y573D02*
X1857Y573D01*
X1445Y572D02*
X1490Y572D01*
X1512Y572D02*
X1557Y572D01*
X1745Y572D02*
X1790Y572D01*
X1812Y572D02*
X1857Y572D01*
X1445Y571D02*
X1490Y571D01*
X1512Y571D02*
X1557Y571D01*
X1744Y571D02*
X1789Y571D01*
X1812Y571D02*
X1857Y571D01*
X1445Y570D02*
X1490Y570D01*
X1512Y570D02*
X1557Y570D01*
X1744Y570D02*
X1789Y570D01*
X1812Y570D02*
X1857Y570D01*
X1445Y569D02*
X1490Y569D01*
X1512Y569D02*
X1557Y569D01*
X1744Y569D02*
X1789Y569D01*
X1812Y569D02*
X1857Y569D01*
X1445Y568D02*
X1490Y568D01*
X1512Y568D02*
X1557Y568D01*
X1745Y568D02*
X1790Y568D01*
X1812Y568D02*
X1857Y568D01*
X1445Y567D02*
X1490Y567D01*
X1512Y567D02*
X1557Y567D01*
X1745Y567D02*
X1790Y567D01*
X1812Y567D02*
X1857Y567D01*
X1445Y566D02*
X1490Y566D01*
X1512Y566D02*
X1557Y566D01*
X1745Y566D02*
X1790Y566D01*
X1812Y566D02*
X1857Y566D01*
X1445Y565D02*
X1491Y565D01*
X1511Y565D02*
X1557Y565D01*
X1745Y565D02*
X1791Y565D01*
X1811Y565D02*
X1857Y565D01*
X1445Y564D02*
X1491Y564D01*
X1511Y564D02*
X1557Y564D01*
X1745Y564D02*
X1791Y564D01*
X1811Y564D02*
X1857Y564D01*
X1445Y563D02*
X1492Y563D01*
X1510Y563D02*
X1557Y563D01*
X1745Y563D02*
X1792Y563D01*
X1810Y563D02*
X1856Y563D01*
X1446Y562D02*
X1493Y562D01*
X1509Y562D02*
X1556Y562D01*
X1746Y562D02*
X1793Y562D01*
X1809Y562D02*
X1856Y562D01*
X1446Y561D02*
X1494Y561D01*
X1508Y561D02*
X1556Y561D01*
X1746Y561D02*
X1794Y561D01*
X1808Y561D02*
X1856Y561D01*
X1446Y560D02*
X1496Y560D01*
X1506Y560D02*
X1556Y560D01*
X1746Y560D02*
X1796Y560D01*
X1806Y560D02*
X1856Y560D01*
X1447Y559D02*
X1555Y559D01*
X1747Y559D02*
X1855Y559D01*
X1447Y558D02*
X1555Y558D01*
X1747Y558D02*
X1855Y558D01*
X1448Y557D02*
X1554Y557D01*
X1747Y557D02*
X1854Y557D01*
X1448Y556D02*
X1554Y556D01*
X1748Y556D02*
X1854Y556D01*
X1448Y555D02*
X1553Y555D01*
X1748Y555D02*
X1853Y555D01*
X1449Y554D02*
X1553Y554D01*
X1749Y554D02*
X1853Y554D01*
X1450Y553D02*
X1552Y553D01*
X1750Y553D02*
X1852Y553D01*
X1450Y552D02*
X1552Y552D01*
X1750Y552D02*
X1851Y552D01*
X1451Y551D02*
X1551Y551D01*
X1751Y551D02*
X1851Y551D01*
X1452Y550D02*
X1550Y550D01*
X1752Y550D02*
X1850Y550D01*
X1453Y549D02*
X1549Y549D01*
X1753Y549D02*
X1849Y549D01*
X1454Y548D02*
X1548Y548D01*
X1754Y548D02*
X1848Y548D01*
X1455Y547D02*
X1547Y547D01*
X1755Y547D02*
X1847Y547D01*
X1456Y546D02*
X1546Y546D01*
X1756Y546D02*
X1846Y546D01*
X1457Y545D02*
X1545Y545D01*
X1757Y545D02*
X1845Y545D01*
X1459Y544D02*
X1543Y544D01*
X1759Y544D02*
X1843Y544D01*
X1461Y543D02*
X1541Y543D01*
X1760Y543D02*
X1841Y543D01*
X1463Y542D02*
X1539Y542D01*
X1762Y542D02*
X1839Y542D01*
X1465Y541D02*
X1537Y541D01*
X1765Y541D02*
X1837Y541D01*
X1468Y540D02*
X1534Y540D01*
X1768Y540D02*
X1834Y540D01*
X1474Y501D02*
X1528Y501D01*
X1774Y501D02*
X1828Y501D01*
X1468Y500D02*
X1534Y500D01*
X1768Y500D02*
X1834Y500D01*
X1465Y499D02*
X1537Y499D01*
X1765Y499D02*
X1837Y499D01*
X1462Y498D02*
X1540Y498D01*
X1762Y498D02*
X1840Y498D01*
X1460Y497D02*
X1542Y497D01*
X1760Y497D02*
X1842Y497D01*
X1459Y496D02*
X1543Y496D01*
X1759Y496D02*
X1843Y496D01*
X1457Y495D02*
X1545Y495D01*
X1757Y495D02*
X1845Y495D01*
X1456Y494D02*
X1546Y494D01*
X1756Y494D02*
X1846Y494D01*
X1455Y493D02*
X1547Y493D01*
X1755Y493D02*
X1847Y493D01*
X1454Y492D02*
X1548Y492D01*
X1754Y492D02*
X1848Y492D01*
X1453Y491D02*
X1549Y491D01*
X1753Y491D02*
X1849Y491D01*
X1452Y490D02*
X1550Y490D01*
X1752Y490D02*
X1850Y490D01*
X1451Y489D02*
X1551Y489D01*
X1751Y489D02*
X1851Y489D01*
X1450Y488D02*
X1552Y488D01*
X1750Y488D02*
X1852Y488D01*
X1450Y487D02*
X1552Y487D01*
X1750Y487D02*
X1852Y487D01*
X1449Y486D02*
X1553Y486D01*
X1749Y486D02*
X1853Y486D01*
X1448Y485D02*
X1554Y485D01*
X1748Y485D02*
X1853Y485D01*
X1448Y484D02*
X1554Y484D01*
X1748Y484D02*
X1854Y484D01*
X1447Y483D02*
X1555Y483D01*
X1747Y483D02*
X1854Y483D01*
X1447Y482D02*
X1555Y482D01*
X1747Y482D02*
X1855Y482D01*
X1447Y481D02*
X1500Y481D01*
X1502Y481D02*
X1555Y481D01*
X1747Y481D02*
X1800Y481D01*
X1802Y481D02*
X1855Y481D01*
X1446Y480D02*
X1496Y480D01*
X1506Y480D02*
X1556Y480D01*
X1746Y480D02*
X1796Y480D01*
X1806Y480D02*
X1856Y480D01*
X1446Y479D02*
X1494Y479D01*
X1508Y479D02*
X1556Y479D01*
X1746Y479D02*
X1794Y479D01*
X1808Y479D02*
X1856Y479D01*
X1446Y478D02*
X1493Y478D01*
X1509Y478D02*
X1556Y478D01*
X1746Y478D02*
X1793Y478D01*
X1809Y478D02*
X1856Y478D01*
X1445Y477D02*
X1492Y477D01*
X1510Y477D02*
X1557Y477D01*
X1745Y477D02*
X1792Y477D01*
X1810Y477D02*
X1856Y477D01*
X1445Y476D02*
X1491Y476D01*
X1511Y476D02*
X1557Y476D01*
X1745Y476D02*
X1791Y476D01*
X1811Y476D02*
X1857Y476D01*
X1445Y475D02*
X1491Y475D01*
X1511Y475D02*
X1557Y475D01*
X1745Y475D02*
X1791Y475D01*
X1811Y475D02*
X1857Y475D01*
X1445Y474D02*
X1490Y474D01*
X1512Y474D02*
X1557Y474D01*
X1745Y474D02*
X1790Y474D01*
X1812Y474D02*
X1857Y474D01*
X1445Y473D02*
X1490Y473D01*
X1512Y473D02*
X1557Y473D01*
X1745Y473D02*
X1790Y473D01*
X1812Y473D02*
X1857Y473D01*
X1445Y472D02*
X1490Y472D01*
X1512Y472D02*
X1557Y472D01*
X1745Y472D02*
X1790Y472D01*
X1812Y472D02*
X1857Y472D01*
X1445Y471D02*
X1490Y471D01*
X1512Y471D02*
X1557Y471D01*
X1744Y471D02*
X1789Y471D01*
X1812Y471D02*
X1857Y471D01*
X1445Y470D02*
X1490Y470D01*
X1512Y470D02*
X1557Y470D01*
X1744Y470D02*
X1789Y470D01*
X1812Y470D02*
X1857Y470D01*
X1445Y469D02*
X1490Y469D01*
X1512Y469D02*
X1557Y469D01*
X1744Y469D02*
X1789Y469D01*
X1812Y469D02*
X1857Y469D01*
X1445Y468D02*
X1490Y468D01*
X1512Y468D02*
X1557Y468D01*
X1745Y468D02*
X1790Y468D01*
X1812Y468D02*
X1857Y468D01*
X1445Y467D02*
X1490Y467D01*
X1512Y467D02*
X1557Y467D01*
X1745Y467D02*
X1790Y467D01*
X1812Y467D02*
X1857Y467D01*
X1445Y466D02*
X1490Y466D01*
X1512Y466D02*
X1557Y466D01*
X1745Y466D02*
X1790Y466D01*
X1812Y466D02*
X1857Y466D01*
X1445Y465D02*
X1491Y465D01*
X1511Y465D02*
X1557Y465D01*
X1745Y465D02*
X1791Y465D01*
X1811Y465D02*
X1857Y465D01*
X1445Y464D02*
X1491Y464D01*
X1511Y464D02*
X1557Y464D01*
X1745Y464D02*
X1791Y464D01*
X1811Y464D02*
X1857Y464D01*
X1445Y463D02*
X1492Y463D01*
X1510Y463D02*
X1557Y463D01*
X1745Y463D02*
X1792Y463D01*
X1810Y463D02*
X1856Y463D01*
X1446Y462D02*
X1493Y462D01*
X1509Y462D02*
X1556Y462D01*
X1746Y462D02*
X1793Y462D01*
X1809Y462D02*
X1856Y462D01*
X1446Y461D02*
X1494Y461D01*
X1508Y461D02*
X1556Y461D01*
X1746Y461D02*
X1794Y461D01*
X1808Y461D02*
X1856Y461D01*
X1446Y460D02*
X1496Y460D01*
X1506Y460D02*
X1556Y460D01*
X1746Y460D02*
X1796Y460D01*
X1806Y460D02*
X1856Y460D01*
X1447Y459D02*
X1555Y459D01*
X1747Y459D02*
X1855Y459D01*
X1447Y458D02*
X1555Y458D01*
X1747Y458D02*
X1855Y458D01*
X1448Y457D02*
X1554Y457D01*
X1747Y457D02*
X1854Y457D01*
X1448Y456D02*
X1554Y456D01*
X1748Y456D02*
X1854Y456D01*
X1449Y455D02*
X1553Y455D01*
X1748Y455D02*
X1853Y455D01*
X1449Y454D02*
X1553Y454D01*
X1749Y454D02*
X1853Y454D01*
X1450Y453D02*
X1552Y453D01*
X1750Y453D02*
X1852Y453D01*
X1450Y452D02*
X1552Y452D01*
X1750Y452D02*
X1851Y452D01*
X1451Y451D02*
X1551Y451D01*
X1751Y451D02*
X1851Y451D01*
X1452Y450D02*
X1550Y450D01*
X1752Y450D02*
X1850Y450D01*
X1453Y449D02*
X1549Y449D01*
X1753Y449D02*
X1849Y449D01*
X1454Y448D02*
X1548Y448D01*
X1754Y448D02*
X1848Y448D01*
X1455Y447D02*
X1547Y447D01*
X1755Y447D02*
X1847Y447D01*
X1456Y446D02*
X1546Y446D01*
X1756Y446D02*
X1846Y446D01*
X1457Y445D02*
X1545Y445D01*
X1757Y445D02*
X1844Y445D01*
X1459Y444D02*
X1543Y444D01*
X1759Y444D02*
X1843Y444D01*
X1461Y443D02*
X1541Y443D01*
X1760Y443D02*
X1841Y443D01*
X1463Y442D02*
X1539Y442D01*
X1763Y442D02*
X1839Y442D01*
X1465Y441D02*
X1537Y441D01*
X1765Y441D02*
X1837Y441D01*
X1468Y440D02*
X1534Y440D01*
X1768Y440D02*
X1834Y440D01*
X1474Y401D02*
X1528Y401D01*
X1774Y401D02*
X1828Y401D01*
X1468Y400D02*
X1534Y400D01*
X1768Y400D02*
X1834Y400D01*
X1465Y399D02*
X1537Y399D01*
X1765Y399D02*
X1837Y399D01*
X1462Y398D02*
X1540Y398D01*
X1762Y398D02*
X1840Y398D01*
X1460Y397D02*
X1542Y397D01*
X1760Y397D02*
X1842Y397D01*
X1459Y396D02*
X1543Y396D01*
X1759Y396D02*
X1843Y396D01*
X1457Y395D02*
X1545Y395D01*
X1757Y395D02*
X1845Y395D01*
X1456Y394D02*
X1546Y394D01*
X1756Y394D02*
X1846Y394D01*
X1455Y393D02*
X1547Y393D01*
X1755Y393D02*
X1847Y393D01*
X1454Y392D02*
X1548Y392D01*
X1754Y392D02*
X1848Y392D01*
X1453Y391D02*
X1549Y391D01*
X1753Y391D02*
X1849Y391D01*
X1452Y390D02*
X1550Y390D01*
X1752Y390D02*
X1850Y390D01*
X1451Y389D02*
X1551Y389D01*
X1751Y389D02*
X1851Y389D01*
X1450Y388D02*
X1552Y388D01*
X1750Y388D02*
X1852Y388D01*
X1450Y387D02*
X1552Y387D01*
X1750Y387D02*
X1852Y387D01*
X1449Y386D02*
X1553Y386D01*
X1749Y386D02*
X1853Y386D01*
X1448Y385D02*
X1554Y385D01*
X1748Y385D02*
X1853Y385D01*
X1448Y384D02*
X1554Y384D01*
X1748Y384D02*
X1854Y384D01*
X1447Y383D02*
X1555Y383D01*
X1747Y383D02*
X1854Y383D01*
X1447Y382D02*
X1555Y382D01*
X1747Y382D02*
X1855Y382D01*
X1447Y381D02*
X1499Y381D01*
X1503Y381D02*
X1555Y381D01*
X1747Y381D02*
X1799Y381D01*
X1803Y381D02*
X1855Y381D01*
X1446Y380D02*
X1496Y380D01*
X1506Y380D02*
X1556Y380D01*
X1746Y380D02*
X1796Y380D01*
X1806Y380D02*
X1856Y380D01*
X1446Y379D02*
X1494Y379D01*
X1508Y379D02*
X1556Y379D01*
X1746Y379D02*
X1794Y379D01*
X1808Y379D02*
X1856Y379D01*
X1446Y378D02*
X1493Y378D01*
X1509Y378D02*
X1556Y378D01*
X1746Y378D02*
X1793Y378D01*
X1809Y378D02*
X1856Y378D01*
X1445Y377D02*
X1492Y377D01*
X1510Y377D02*
X1557Y377D01*
X1745Y377D02*
X1792Y377D01*
X1810Y377D02*
X1856Y377D01*
X1445Y376D02*
X1491Y376D01*
X1511Y376D02*
X1557Y376D01*
X1745Y376D02*
X1791Y376D01*
X1811Y376D02*
X1857Y376D01*
X1445Y375D02*
X1491Y375D01*
X1511Y375D02*
X1557Y375D01*
X1745Y375D02*
X1790Y375D01*
X1811Y375D02*
X1857Y375D01*
X1445Y374D02*
X1490Y374D01*
X1512Y374D02*
X1557Y374D01*
X1745Y374D02*
X1790Y374D01*
X1812Y374D02*
X1857Y374D01*
X1445Y373D02*
X1490Y373D01*
X1512Y373D02*
X1557Y373D01*
X1745Y373D02*
X1790Y373D01*
X1812Y373D02*
X1857Y373D01*
X1445Y372D02*
X1490Y372D01*
X1512Y372D02*
X1557Y372D01*
X1745Y372D02*
X1790Y372D01*
X1812Y372D02*
X1857Y372D01*
X1445Y371D02*
X1490Y371D01*
X1512Y371D02*
X1557Y371D01*
X1744Y371D02*
X1789Y371D01*
X1812Y371D02*
X1857Y371D01*
X1445Y370D02*
X1490Y370D01*
X1512Y370D02*
X1557Y370D01*
X1744Y370D02*
X1789Y370D01*
X1812Y370D02*
X1857Y370D01*
X1445Y369D02*
X1490Y369D01*
X1512Y369D02*
X1557Y369D01*
X1744Y369D02*
X1789Y369D01*
X1812Y369D02*
X1857Y369D01*
X1445Y368D02*
X1490Y368D01*
X1512Y368D02*
X1557Y368D01*
X1745Y368D02*
X1790Y368D01*
X1812Y368D02*
X1857Y368D01*
X1445Y367D02*
X1490Y367D01*
X1512Y367D02*
X1557Y367D01*
X1745Y367D02*
X1790Y367D01*
X1812Y367D02*
X1857Y367D01*
X1445Y366D02*
X1490Y366D01*
X1512Y366D02*
X1557Y366D01*
X1745Y366D02*
X1790Y366D01*
X1812Y366D02*
X1857Y366D01*
X1445Y365D02*
X1491Y365D01*
X1511Y365D02*
X1557Y365D01*
X1745Y365D02*
X1791Y365D01*
X1811Y365D02*
X1857Y365D01*
X1445Y364D02*
X1491Y364D01*
X1511Y364D02*
X1557Y364D01*
X1745Y364D02*
X1791Y364D01*
X1811Y364D02*
X1857Y364D01*
X1445Y363D02*
X1492Y363D01*
X1510Y363D02*
X1557Y363D01*
X1745Y363D02*
X1792Y363D01*
X1810Y363D02*
X1856Y363D01*
X1446Y362D02*
X1493Y362D01*
X1509Y362D02*
X1556Y362D01*
X1746Y362D02*
X1793Y362D01*
X1809Y362D02*
X1856Y362D01*
X1446Y361D02*
X1494Y361D01*
X1508Y361D02*
X1556Y361D01*
X1746Y361D02*
X1794Y361D01*
X1808Y361D02*
X1856Y361D01*
X1446Y360D02*
X1496Y360D01*
X1506Y360D02*
X1556Y360D01*
X1746Y360D02*
X1796Y360D01*
X1806Y360D02*
X1856Y360D01*
X1447Y359D02*
X1555Y359D01*
X1747Y359D02*
X1855Y359D01*
X1447Y358D02*
X1555Y358D01*
X1747Y358D02*
X1855Y358D01*
X1448Y357D02*
X1554Y357D01*
X1747Y357D02*
X1854Y357D01*
X1448Y356D02*
X1554Y356D01*
X1748Y356D02*
X1854Y356D01*
X1449Y355D02*
X1553Y355D01*
X1748Y355D02*
X1853Y355D01*
X1449Y354D02*
X1553Y354D01*
X1749Y354D02*
X1853Y354D01*
X1450Y353D02*
X1552Y353D01*
X1750Y353D02*
X1852Y353D01*
X1450Y352D02*
X1552Y352D01*
X1750Y352D02*
X1851Y352D01*
X1451Y351D02*
X1551Y351D01*
X1751Y351D02*
X1851Y351D01*
X1452Y350D02*
X1550Y350D01*
X1752Y350D02*
X1850Y350D01*
X1453Y349D02*
X1549Y349D01*
X1753Y349D02*
X1849Y349D01*
X1454Y348D02*
X1548Y348D01*
X1754Y348D02*
X1848Y348D01*
X1455Y347D02*
X1547Y347D01*
X1755Y347D02*
X1847Y347D01*
X1456Y346D02*
X1546Y346D01*
X1756Y346D02*
X1846Y346D01*
X1457Y345D02*
X1545Y345D01*
X1757Y345D02*
X1844Y345D01*
X1459Y344D02*
X1543Y344D01*
X1759Y344D02*
X1843Y344D01*
X1461Y343D02*
X1541Y343D01*
X1761Y343D02*
X1841Y343D01*
X1463Y342D02*
X1539Y342D01*
X1763Y342D02*
X1839Y342D01*
X1465Y341D02*
X1537Y341D01*
X1765Y341D02*
X1837Y341D01*
X1468Y340D02*
X1534Y340D01*
X1768Y340D02*
X1833Y340D01*
D02*
G04 End of Mask0*
M02*